STARTFONT 2.1
COMMENT
COMMENT Converted from OpenType font "ChivoMono-Bold.ttf" by "otf2bdf 3.0".
COMMENT
FONT -FreeType-chivo mono-Bold-R-Normal--48-350-100-100-P-231-Windows-cp1252
SIZE 35 100 100
FONTBOUNDINGBOX 30 56 0 -10
STARTPROPERTIES 19
FOUNDRY "FreeType"
FAMILY_NAME "chivo mono"
WEIGHT_NAME "Bold"
SLANT "R"
SETWIDTH_NAME "Normal"
ADD_STYLE_NAME ""
PIXEL_SIZE 48
POINT_SIZE 350
RESOLUTION_X 100
RESOLUTION_Y 100
SPACING "P"
AVERAGE_WIDTH 231
CHARSET_REGISTRY "Windows"
CHARSET_ENCODING "cp1252"
FONT_ASCENT 46
FONT_DESCENT 12
COPYRIGHT "Copyright 2018 The Chivo Project Authors (https://github.com/Omnibus-Type/Chivo)"
_OTF_FONTFILE "ChivoMono-Bold.ttf"
_OTF_PSNAME "ChivoMono-Bold"
ENDPROPERTIES
CHARS 219
STARTCHAR 000D
ENCODING 13
SWIDTH 596 0
DWIDTH 29 0
BBX 0 0 0 0
BITMAP
ENDCHAR
STARTCHAR 0020
ENCODING 32
SWIDTH 596 0
DWIDTH 29 0
BBX 0 0 0 0
BITMAP
ENDCHAR
STARTCHAR 0021
ENCODING 33
SWIDTH 596 0
DWIDTH 29 0
BBX 9 33 10 0
BITMAP
FF80
FF80
FF80
FF80
FF80
7F80
7F80
7F00
7F00
7F00
7F00
7F00
7F00
7F00
7F00
7F00
3F00
3F00
3E00
3E00
3E00
3E00
3E00
0000
0000
7F80
7F80
7F80
7F80
7F80
7F80
7F80
7F80
ENDCHAR
STARTCHAR 0022
ENCODING 34
SWIDTH 596 0
DWIDTH 29 0
BBX 15 14 7 19
BITMAP
FC7E
FC7E
FC7E
FC7E
FC7E
FC7E
FC7E
FC7E
FC3E
783E
783C
783C
781C
301C
ENDCHAR
STARTCHAR 0023
ENCODING 35
SWIDTH 596 0
DWIDTH 29 0
BBX 29 34 0 0
BITMAP
001F03E0
003E07C0
003E07C0
003E07C0
003E07C0
003E0780
007C0F80
007C0F80
007C0F80
007C0F80
3FFFFFF8
3FFFFFF8
3FFFFFF8
3FFFFFF8
3FFFFFF8
01F03E00
01F03E00
01F03E00
01F03E00
03E03C00
03E07C00
FFFFFFE0
FFFFFFE0
FFFFFFE0
FFFFFFE0
FFFFFFE0
07C0F800
07C0F800
0F80F000
0F81F000
0F81F000
0F81F000
0F81F000
1F03E000
ENDCHAR
STARTCHAR 0024
ENCODING 36
SWIDTH 596 0
DWIDTH 29 0
BBX 25 40 2 -3
BITMAP
003E0000
003E0000
003E0000
003C0000
007F0000
03FFF000
0FFFF800
1FFFFE00
3FFFFE00
7FFFFF00
7F80FF00
7F007F80
7F003F80
7F003F80
7F800000
7FE00000
7FFE0000
7FFFC000
3FFFF800
1FFFFC00
0FFFFF00
03FFFF00
007FFF80
0007FF80
0000FF80
FE007F80
FE003F80
FE003F80
FE007F80
FF80FF80
7FFFFF00
7FFFFF00
3FFFFE00
1FFFFC00
07FFF000
00FFC000
003C0000
003C0000
003E0000
003E0000
ENDCHAR
STARTCHAR 0025
ENCODING 37
SWIDTH 596 0
DWIDTH 29 0
BBX 29 33 0 0
BITMAP
1FC000F8
3FE001F0
7FF001E0
F8F003C0
F07807C0
F0780780
F0780F00
F0781E00
F0783C00
F0783C00
F0787800
F078F000
F0F0E000
7FF10000
7FE00000
3FC00000
07000FC0
00003FE0
00003FF0
003C7CF8
00387878
0078F878
00F0F878
01E0F878
01E0F878
03C0F878
0780F878
0F00F878
1F007878
1E007CF8
3C003FF0
7C003FE0
F8000FC0
ENDCHAR
STARTCHAR 0026
ENCODING 38
SWIDTH 596 0
DWIDTH 29 0
BBX 28 34 1 0
BITMAP
007E0000
03FE0000
07FE0000
1FFE0000
1FFE0000
3FFE0000
3FE00000
7FC00000
7F801F80
7F801F80
7F801F80
7F803F80
3F803F80
3FE03F80
1FFFFFF0
0FFFFFF0
03FFFFF0
0FFFFFF0
1FFFFFF0
3FFFFFF0
7FC07F80
7F807F80
FF007F80
FF007F80
FF007F80
FF007F80
FF007F80
7FC07F80
7FFFFF80
7FFFFF80
3FFFFF80
1FFFFF80
07FFFF80
00FFFF80
ENDCHAR
STARTCHAR 0027
ENCODING 39
SWIDTH 596 0
DWIDTH 29 0
BBX 6 14 12 19
BITMAP
FC
FC
FC
FC
FC
FC
FC
FC
F8
F8
78
70
70
70
ENDCHAR
STARTCHAR 0028
ENCODING 40
SWIDTH 596 0
DWIDTH 29 0
BBX 12 41 10 -8
BITMAP
01F0
03C0
07C0
0FC0
0F80
1F80
1F00
3F00
3F00
7E00
7E00
7E00
7E00
FC00
FC00
FC00
FC00
FC00
FC00
FC00
FC00
FC00
FC00
FC00
FC00
FC00
FC00
FE00
7E00
7E00
7E00
3F00
3F00
1F00
1F80
0F80
0F80
07C0
03C0
03E0
01F0
ENDCHAR
STARTCHAR 0029
ENCODING 41
SWIDTH 596 0
DWIDTH 29 0
BBX 12 41 8 -8
BITMAP
F800
7800
7C00
3E00
3E00
3F00
1F00
1F80
1F80
0FC0
0FC0
0FC0
07E0
07E0
07E0
07E0
07E0
07E0
07E0
07F0
07F0
07F0
07E0
07E0
07E0
07E0
07E0
07E0
0FC0
0FC0
0FC0
0F80
1F80
1F80
1F00
3E00
3E00
7C00
7C00
F800
F000
ENDCHAR
STARTCHAR 002A
ENCODING 42
SWIDTH 596 0
DWIDTH 29 0
BBX 21 19 4 14
BITMAP
00F800
00F800
00F800
00F800
40F810
707870
7E71F0
FFFFF8
FFFFF8
3FFFE0
03FE00
01FC00
03FE00
07DF00
0FDF80
1F8FC0
3F07E0
0F0780
060300
ENDCHAR
STARTCHAR 002B
ENCODING 43
SWIDTH 596 0
DWIDTH 29 0
BBX 25 25 2 0
BITMAP
003E0000
003E0000
003E0000
003E0000
003E0000
003E0000
003E0000
003E0000
003E0000
003E0000
FFFFFF80
FFFFFF80
FFFFFF80
FFFFFF80
FFFFFF80
003E0000
003E0000
003E0000
003E0000
003E0000
003E0000
003E0000
003E0000
003E0000
003E0000
ENDCHAR
STARTCHAR 002C
ENCODING 44
SWIDTH 596 0
DWIDTH 29 0
BBX 8 18 11 -9
BITMAP
FF
FF
FF
FF
FF
FF
FF
FF
FF
1E
1E
1E
1E
3C
3C
78
F8
F0
ENDCHAR
STARTCHAR 002D
ENCODING 45
SWIDTH 596 0
DWIDTH 29 0
BBX 13 6 8 10
BITMAP
FFF8
FFF8
FFF8
FFF8
FFF8
FFF8
ENDCHAR
STARTCHAR 002E
ENCODING 46
SWIDTH 596 0
DWIDTH 29 0
BBX 8 8 11 0
BITMAP
FF
FF
FF
FF
FF
FF
FF
FF
ENDCHAR
STARTCHAR 002F
ENCODING 47
SWIDTH 596 0
DWIDTH 29 0
BBX 29 41 0 -8
BITMAP
000001F8
000003F0
000003E0
000007E0
000007C0
00000FC0
00000F80
00001F80
00001F00
00003E00
00007E00
00007C00
0000FC00
0000F800
0001F800
0001F000
0003F000
0003E000
0007C000
000FC000
000F8000
001F8000
001F0000
003F0000
003E0000
007E0000
007C0000
00F80000
01F80000
01F00000
03F00000
03E00000
07E00000
07C00000
0FC00000
0F800000
1F000000
3F000000
3E000000
7E000000
FC000000
ENDCHAR
STARTCHAR 0030
ENCODING 48
SWIDTH 596 0
DWIDTH 29 0
BBX 25 34 2 0
BITMAP
007F0000
03FFE000
07FFF800
1FFFFC00
1FFFFE00
3FFFFE00
7FC1FF00
7F80FF00
FF007F80
FF007F80
FF007F80
FF007F80
FF007F80
FF007F80
FF007F80
FF007F80
FF007F80
FF007F80
FF007F80
FF007F80
FF007F80
FF007F80
FF007F80
FF007F80
FF007F80
FF007F80
7F807F80
7F80FF00
7FE3FF00
3FFFFE00
1FFFFC00
0FFFF800
07FFF000
01FFC000
ENDCHAR
STARTCHAR 0031
ENCODING 49
SWIDTH 596 0
DWIDTH 29 0
BBX 23 34 4 0
BITMAP
000E00
003E00
00FE00
07FE00
FFFE00
FFFE00
FFFE00
FFFE00
FFFE00
00FE00
00FE00
00FE00
00FE00
00FE00
00FE00
00FE00
00FE00
00FE00
00FE00
00FE00
00FE00
00FE00
00FE00
00FE00
00FE00
00FE00
00FE00
00FE00
FFFFFE
FFFFFE
FFFFFE
FFFFFE
FFFFFE
FFFFFE
ENDCHAR
STARTCHAR 0032
ENCODING 50
SWIDTH 596 0
DWIDTH 29 0
BBX 25 34 2 0
BITMAP
007F8000
03FFF000
07FFF800
1FFFFC00
1FFFFE00
3FFFFF00
7FE3FF00
7F80FF80
7F007F80
FF007F80
FE007F80
FE007F80
00007F80
00007F80
0000FF00
0001FF00
0003FE00
0007FE00
001FFC00
003FF000
007FE000
01FFC000
03FF0000
07FE0000
1FF80000
3FF00000
3FE00000
7FFFFF80
7FFFFF80
FFFFFF80
FFFFFF80
FFFFFF80
FFFFFF80
FFFFFF80
ENDCHAR
STARTCHAR 0033
ENCODING 51
SWIDTH 596 0
DWIDTH 29 0
BBX 26 34 1 0
BITMAP
003F8000
01FFF000
07FFFC00
0FFFFE00
1FFFFF00
3FFFFF80
3FC1FF80
3F807F80
7F003F80
7F003F80
00003F80
00003F80
00007F80
0000FF00
007FFE00
007FFC00
007FF800
007FFC00
007FFF00
0003FF80
00007F80
00003FC0
00001FC0
00001FC0
FE001FC0
FF003FC0
7F003FC0
7F807FC0
7FF3FFC0
3FFFFF80
3FFFFF00
1FFFFE00
07FFFC00
01FFF000
ENDCHAR
STARTCHAR 0034
ENCODING 52
SWIDTH 596 0
DWIDTH 29 0
BBX 27 34 1 0
BITMAP
007F0000
007F0000
00FE0000
00FE0000
00FE1C00
01FC1C00
01FC3C00
03F83C00
03F87C00
03F07C00
07F0FC00
07E0FC00
0FE1FC00
0FC1FC00
1FC1FC00
1F81FC00
3F81FC00
3F01FC00
7E01FC00
7C01FC00
FFFFFFE0
FFFFFFE0
FFFFFFE0
FFFFFFE0
FFFFFFE0
FFFFFFE0
0001FC00
0001FC00
0001FC00
0001FC00
0001FC00
0001FC00
0001FC00
0001FC00
ENDCHAR
STARTCHAR 0035
ENCODING 53
SWIDTH 596 0
DWIDTH 29 0
BBX 25 33 2 0
BITMAP
1FFFFE00
1FFFFE00
3FFFFE00
3FFFFE00
3FFFFE00
3FFFFE00
3F800000
3F000000
3F000000
3F000000
3F000000
3F1FC000
3F7FF000
3FFFFC00
3FFFFE00
7FFFFE00
7FFFFF00
7F81FF00
1F00FF80
00007F80
00007F80
00003F80
FE003F80
FE007F80
FE007F80
FF00FF80
7F81FF00
7FFFFF00
3FFFFE00
3FFFFE00
1FFFF800
07FFF000
01FFC000
ENDCHAR
STARTCHAR 0036
ENCODING 54
SWIDTH 596 0
DWIDTH 29 0
BBX 25 34 3 0
BITMAP
007F0000
03FFC000
0FFFF000
1FFFF800
3FFFFC00
7FFFFE00
7FC3FE00
FF80FE00
FF00FF00
FE007F00
FE007F00
FE000000
FE000000
FE1FC000
FE7FF000
FEFFFC00
FFFFFE00
FFFFFE00
FF81FF00
FF00FF00
FF007F00
FE007F80
FE007F80
FE007F80
FE007F80
FE007F00
FF00FF00
FF80FF00
7FC3FE00
3FFFFE00
3FFFFC00
1FFFF800
07FFF000
01FFC000
ENDCHAR
STARTCHAR 0037
ENCODING 55
SWIDTH 596 0
DWIDTH 29 0
BBX 24 33 3 0
BITMAP
FFFFFF
FFFFFF
FFFFFF
FFFFFF
FFFFFE
FFFFFE
0001FC
0001F8
0003F8
0007F0
0007E0
000FE0
001FC0
001F80
003F80
007F80
007F00
00FF00
00FE00
01FE00
01FE00
03FC00
03FC00
03FC00
07F800
07F800
07F800
07F800
07F800
0FF800
0FF800
0FF800
0FF800
ENDCHAR
STARTCHAR 0038
ENCODING 56
SWIDTH 596 0
DWIDTH 29 0
BBX 25 34 2 0
BITMAP
007F0000
03FFE000
07FFF800
1FFFFC00
1FFFFE00
3FF7FE00
3F80FF00
7F807F00
7F007F00
7F007F00
7F007F00
7F007F00
3F807F00
3F80FE00
1FE3FE00
0FFFFC00
07FFF000
0FFFF800
1FFFFC00
3FE3FE00
7F80FF00
7F007F80
FF007F80
FF007F80
FF007F80
FF007F80
FF007F80
FF80FF80
7FC1FF80
7FFFFF00
3FFFFE00
1FFFFC00
0FFFF800
03FFE000
ENDCHAR
STARTCHAR 0039
ENCODING 57
SWIDTH 596 0
DWIDTH 29 0
BBX 26 34 1 0
BITMAP
003F0000
01FFE000
07FFF800
0FFFFC00
1FFFFE00
3FFFFF00
3FC0FF00
7F807F80
7F807F80
7F003F80
7F003FC0
FF003FC0
7F003FC0
7F003FC0
7F807FC0
7F807FC0
3FE1FFC0
3FFFFFC0
1FFFFFC0
0FFFBFC0
03FF3FC0
00FC3FC0
00003FC0
7F003FC0
7F003FC0
7F003F80
3F807F80
3FC0FF80
3FFFFF00
1FFFFF00
1FFFFE00
0FFFFC00
03FFF000
01FFE000
ENDCHAR
STARTCHAR 003A
ENCODING 58
SWIDTH 596 0
DWIDTH 29 0
BBX 8 25 11 0
BITMAP
FF
FF
FF
FF
FF
FF
FF
FF
00
00
00
00
00
00
00
00
00
FF
FF
FF
FF
FF
FF
FF
FF
ENDCHAR
STARTCHAR 003B
ENCODING 59
SWIDTH 596 0
DWIDTH 29 0
BBX 8 34 11 -9
BITMAP
FF
FF
FF
FF
FF
FF
FF
FF
00
00
00
00
00
00
00
00
FF
FF
FF
FF
FF
FF
FF
FF
FF
1E
1E
1E
1E
3C
3C
78
F8
F0
ENDCHAR
STARTCHAR 003C
ENCODING 60
SWIDTH 596 0
DWIDTH 29 0
BBX 24 25 2 0
BITMAP
000001
000007
00003F
0000FF
0007FF
003FFF
00FFFC
07FFF0
1FFF80
FFFC00
FFF000
FF8000
FC0000
FF0000
FFE000
FFFC00
3FFF00
0FFFE0
01FFFC
003FFF
000FFF
0001FF
00007F
00000F
000003
ENDCHAR
STARTCHAR 003D
ENCODING 61
SWIDTH 596 0
DWIDTH 29 0
BBX 25 16 2 4
BITMAP
FFFFFF80
FFFFFF80
FFFFFF80
FFFFFF80
FFFFFF80
00000000
00000000
00000000
00000000
00000000
FFFFFF80
FFFFFF80
FFFFFF80
FFFFFF80
FFFFFF80
FFFFFF80
ENDCHAR
STARTCHAR 003E
ENCODING 62
SWIDTH 596 0
DWIDTH 29 0
BBX 24 25 3 0
BITMAP
800000
F00000
FC0000
FF8000
FFE000
FFFC00
3FFF80
0FFFE0
01FFFC
003FFF
000FFF
0001FF
00003F
0000FF
0007FF
003FFF
00FFFC
07FFF0
3FFF80
FFFE00
FFF000
FF8000
FE0000
F00000
800000
ENDCHAR
STARTCHAR 003F
ENCODING 63
SWIDTH 596 0
DWIDTH 29 0
BBX 24 34 3 0
BITMAP
007E00
03FFC0
0FFFF0
1FFFF8
3FFFFC
7FFFFC
FF83FE
FF01FE
FE01FF
FE01FF
FE01FF
FE01FE
0001FE
0003FE
0007FC
000FF8
001FF0
003FE0
007FC0
007F00
007F00
007E00
007E00
007E00
000000
000000
00FF00
00FF00
00FF00
00FF00
00FF00
00FF00
00FF00
00FF00
ENDCHAR
STARTCHAR 0040
ENCODING 64
SWIDTH 596 0
DWIDTH 29 0
BBX 29 42 0 -8
BITMAP
000FE000
007FFC00
01FFFE00
03E01F00
07800780
0F0003C0
1E0001E0
1C0000E0
3C0000F0
383FE070
787FF870
70FFFC70
71FFFC78
71FDFE38
71F87E38
F1F07E38
E1F07E38
E0007E38
E0007E38
E00FFE38
E07FFE38
E0FFFE38
E1FFFE38
E1FC7E38
E3F87E38
E3F07E38
E3F07E38
F3F07E38
73F8FE78
73FDFF70
73FFFFF0
71FFDFF0
79FF9FE0
38FF0FC0
3C000000
1C000000
1E000000
0F000000
07C00400
03FFFC00
01FFFC00
003FF000
ENDCHAR
STARTCHAR 0041
ENCODING 65
SWIDTH 596 0
DWIDTH 29 0
BBX 29 33 0 0
BITMAP
007FF000
007FF000
007FF000
00FFF800
00FFF800
00FFF800
00FFFC00
01FDFC00
01FDFC00
01F9FC00
03F9FE00
03F8FE00
03F8FE00
03F0FE00
07F0FF00
07F07F00
07F07F00
07F07F80
0FE07F80
0FE03F80
0FE03F80
1FFFFFC0
1FFFFFC0
1FFFFFC0
1FFFFFE0
3FFFFFE0
3F801FE0
3F800FE0
3F800FF0
7F800FF0
7F800FF0
7F000FF8
FF0007F8
ENDCHAR
STARTCHAR 0042
ENCODING 66
SWIDTH 596 0
DWIDTH 29 0
BBX 25 33 3 0
BITMAP
FFFFF000
FFFFF800
FFFFFC00
FFFFFE00
FFFFFE00
FE07FF00
FE01FF00
FE00FF00
FE00FF00
FE00FF00
FE00FF00
FE00FE00
FE01FE00
FFFFFC00
FFFFF800
FFFFC000
FFFFF000
FFFFFC00
FFFFFE00
FE01FF00
FE00FF00
FE007F00
FE007F80
FE007F80
FE007F80
FE00FF80
FE01FF00
FFFFFF00
FFFFFF00
FFFFFE00
FFFFFC00
FFFFF800
FFFFE000
ENDCHAR
STARTCHAR 0043
ENCODING 67
SWIDTH 596 0
DWIDTH 29 0
BBX 26 34 1 0
BITMAP
003F8000
01FFF000
07FFFC00
0FFFFE00
1FFFFF00
3FFFFF00
3FF1FF80
7FC07F80
7F803FC0
FF803FC0
FF001FC0
FF001FC0
FF001FC0
FF001FC0
FF000000
FF000000
FF000000
FF000000
FF000000
FF000000
FF000000
FF001FC0
FF001FC0
FF001FC0
FF001FC0
FF803FC0
7F803FC0
7FC07F80
3FFFFF80
3FFFFF00
1FFFFE00
0FFFFC00
07FFF800
01FFE000
ENDCHAR
STARTCHAR 0044
ENCODING 68
SWIDTH 596 0
DWIDTH 29 0
BBX 26 33 3 0
BITMAP
FFFFC000
FFFFF000
FFFFFC00
FFFFFE00
FFFFFF00
FFFFFF00
FF01FF80
FF00FF80
FF007F80
FF007FC0
FF007FC0
FF003FC0
FF003FC0
FF003FC0
FF003FC0
FF003FC0
FF003FC0
FF003FC0
FF003FC0
FF003FC0
FF003FC0
FF007FC0
FF007FC0
FF007FC0
FF007F80
FF00FF80
FF03FF00
FFFFFF00
FFFFFE00
FFFFFC00
FFFFF800
FFFFE000
FFFF8000
ENDCHAR
STARTCHAR 0045
ENCODING 69
SWIDTH 596 0
DWIDTH 29 0
BBX 24 33 3 0
BITMAP
FFFFFF
FFFFFE
FFFFFE
FFFFFE
FFFFFE
FFFFFE
FF0000
FF0000
FF0000
FF0000
FF0000
FF0000
FF0000
FFFFFC
FFFFFC
FFFFFC
FFFFFC
FFFFFC
FFFFFC
FF0000
FF0000
FF0000
FF0000
FF0000
FF0000
FF0000
FF0000
FFFFFE
FFFFFE
FFFFFE
FFFFFE
FFFFFF
FFFFFF
ENDCHAR
STARTCHAR 0046
ENCODING 70
SWIDTH 596 0
DWIDTH 29 0
BBX 23 33 3 0
BITMAP
FFFFFE
FFFFFE
FFFFFE
FFFFFE
FFFFFC
FFFFFC
FF0000
FF0000
FF0000
FF0000
FF0000
FF0000
FF0000
FFFFF8
FFFFF8
FFFFF8
FFFFF8
FFFFF8
FFFFF8
FFFFF8
FF0000
FF0000
FF0000
FF0000
FF0000
FF0000
FF0000
FF0000
FF0000
FF0000
FF0000
FF0000
FF0000
ENDCHAR
STARTCHAR 0047
ENCODING 71
SWIDTH 596 0
DWIDTH 29 0
BBX 27 34 1 0
BITMAP
003F8000
01FFF000
07FFFC00
0FFFFE00
1FFFFF00
3FFFFF80
7FF1FF80
7FC07FC0
7F803FC0
FF801FC0
FF001FC0
FF001FE0
FF001FE0
FF000000
FF000000
FF000000
FF07FFE0
FF07FFE0
FF07FFE0
FF07FFE0
FF07FFE0
FF001FE0
FF001FE0
FF001FE0
FF001FE0
FF801FE0
7F803FE0
7FC07FE0
3FFFFFE0
3FFFFFE0
1FFFFFE0
0FFFF3E0
07FFE3E0
01FFC3E0
ENDCHAR
STARTCHAR 0048
ENCODING 72
SWIDTH 596 0
DWIDTH 29 0
BBX 24 33 3 0
BITMAP
FE00FF
FE00FF
FE00FF
FE00FF
FE00FF
FE00FF
FE00FF
FE00FF
FE00FF
FE00FF
FE00FF
FE00FF
FE00FF
FFFFFF
FFFFFF
FFFFFF
FFFFFF
FFFFFF
FFFFFF
FE00FF
FE00FF
FE00FF
FE00FF
FE00FF
FE00FF
FE00FF
FE00FF
FE00FF
FE00FF
FE00FF
FE00FF
FE00FF
FE00FF
ENDCHAR
STARTCHAR 0049
ENCODING 73
SWIDTH 596 0
DWIDTH 29 0
BBX 22 33 4 0
BITMAP
FFFFFC
FFFFFC
FFFFFC
FFFFFC
FFFFFC
01FE00
01FE00
01FE00
01FE00
01FE00
01FE00
01FE00
01FE00
01FE00
01FE00
01FE00
01FE00
01FE00
01FE00
01FE00
01FE00
01FE00
01FE00
01FE00
01FE00
01FE00
01FE00
FFFFFC
FFFFFC
FFFFFC
FFFFFC
FFFFFC
FFFFFC
ENDCHAR
STARTCHAR 004A
ENCODING 74
SWIDTH 596 0
DWIDTH 29 0
BBX 22 33 4 0
BITMAP
0003FC
0003FC
0003FC
0003FC
0003FC
0003FC
0003FC
0003FC
0003FC
0003FC
0003FC
0003FC
0003FC
0003FC
0003FC
0003FC
0003FC
0003FC
0003FC
0003FC
0003FC
0003FC
FE03FC
FE03FC
FE03FC
FE07FC
FF07F8
FFDFF8
FFFFF8
7FFFF0
3FFFE0
1FFFC0
07FF00
ENDCHAR
STARTCHAR 004B
ENCODING 75
SWIDTH 596 0
DWIDTH 29 0
BBX 26 33 3 0
BITMAP
FE007F80
FE00FF00
FE01FF00
FE01FE00
FE03FE00
FE03FC00
FE07FC00
FE0FF800
FE0FF000
FE1FF000
FE1FE000
FE3FE000
FE7FC000
FE7FC000
FEFF8000
FEFF0000
FFFF8000
FFFF8000
FFFFC000
FFFFC000
FFFFE000
FFFFE000
FF9FF000
FF0FF800
FF0FF800
FE07FC00
FE07FC00
FE03FE00
FE01FE00
FE01FF00
FE00FF00
FE00FF80
FE007FC0
ENDCHAR
STARTCHAR 004C
ENCODING 76
SWIDTH 596 0
DWIDTH 29 0
BBX 22 33 4 0
BITMAP
FF0000
FF0000
FF0000
FF0000
FF0000
FF0000
FF0000
FF0000
FF0000
FF0000
FF0000
FF0000
FF0000
FF0000
FF0000
FF0000
FF0000
FF0000
FF0000
FF0000
FF0000
FF0000
FF0000
FF0000
FF0000
FF0000
FFFFFC
FFFFFC
FFFFFC
FFFFFC
FFFFFC
FFFFFC
FFFFFC
ENDCHAR
STARTCHAR 004D
ENCODING 77
SWIDTH 596 0
DWIDTH 29 0
BBX 25 33 2 0
BITMAP
FFC0FF80
FFC1FF80
FFC1FF80
FFC1FF80
FFC1FF80
FFC1FF80
FFC1FF80
FFE1FF80
FFE3FF80
FFE3FF80
FFE3FF80
FDE3FF80
FDE3FF80
FDE3FF80
FDF3BF80
FDF7BF80
FDF7BF80
FDF7BF80
FCF7BF80
FCF7BF80
FCF7BF80
FCFF3F80
FCFF3F80
FCFF3F80
FCFF3F80
FCFF3F80
FC7F3F80
FC7F3F80
FC7F3F80
FC7E3F80
FC7E3F80
FC7E3F80
FC7E3F80
ENDCHAR
STARTCHAR 004E
ENCODING 78
SWIDTH 596 0
DWIDTH 29 0
BBX 24 33 3 0
BITMAP
FF00FF
FF00FF
FF80FF
FF80FF
FFC0FF
FFC0FF
FFC0FF
FFE0FF
FFE0FF
FFF0FF
FFF0FF
FFF8FF
FFF8FF
FFFCFF
FFFCFF
FEFEFF
FEFEFF
FEFFFF
FE7FFF
FE7FFF
FE3FFF
FE3FFF
FE1FFF
FE1FFF
FE0FFF
FE0FFF
FE07FF
FE07FF
FE03FF
FE03FF
FE01FF
FE01FF
FE00FF
ENDCHAR
STARTCHAR 004F
ENCODING 79
SWIDTH 596 0
DWIDTH 29 0
BBX 27 34 1 0
BITMAP
003FC000
01FFF800
07FFFC00
0FFFFE00
1FFFFF00
3FFFFF80
3FF1FFC0
7FC07FC0
7F803FE0
FF801FE0
FF001FE0
FF001FE0
FF001FE0
FF001FE0
FF001FE0
FF001FE0
FF001FE0
FF001FE0
FF001FE0
FF001FE0
FF001FE0
FF001FE0
FF001FE0
FF001FE0
FF001FE0
FF803FE0
7F803FC0
7FC07FC0
3FFFFFC0
3FFFFF80
1FFFFF00
0FFFFE00
07FFFC00
01FFF000
ENDCHAR
STARTCHAR 0050
ENCODING 80
SWIDTH 596 0
DWIDTH 29 0
BBX 26 33 3 0
BITMAP
FFFFF000
FFFFF800
FFFFFE00
FFFFFF00
FFFFFF00
FFFFFF80
FF00FF80
FF007F80
FF007FC0
FF007FC0
FF007FC0
FF007FC0
FF007F80
FF00FF80
FFFFFF80
FFFFFF00
FFFFFF00
FFFFFE00
FFFFF800
FFFFF000
FF000000
FF000000
FF000000
FF000000
FF000000
FF000000
FF000000
FF000000
FF000000
FF000000
FF000000
FF000000
FF000000
ENDCHAR
STARTCHAR 0051
ENCODING 81
SWIDTH 596 0
DWIDTH 29 0
BBX 29 42 1 -8
BITMAP
003FC000
01FFF800
07FFFC00
0FFFFE00
1FFFFF00
3FFFFF80
3FF1FFC0
7FC07FC0
7F803FE0
FF801FE0
FF001FE0
FF001FE0
FF001FE0
FF001FE0
FF001FE0
FF001FE0
FF001FE0
FF001FE0
FF001FE0
FF001FE0
FF001FE0
FF001FE0
FF001FE0
FF001FE0
FF001FE0
FF803FE0
7F803FC0
7FC07FC0
3FFFFFC0
3FFFFF80
1FFFFF00
0FFFFE00
07FFFC00
00FFF000
003FC000
001FE008
001FF878
000FFFF8
0007FFF8
0003FFF8
0000FFE0
00000800
ENDCHAR
STARTCHAR 0052
ENCODING 82
SWIDTH 596 0
DWIDTH 29 0
BBX 27 33 3 0
BITMAP
FFFFF000
FFFFFC00
FFFFFE00
FFFFFF00
FFFFFF00
FFFFFF80
FF00FF80
FF007F80
FF007F80
FF007F80
FF007F80
FF007F80
FF007F80
FF00FF00
FFFFFE00
FFFFFC00
FFFFF000
FFFFF800
FFFFFC00
FFFFFE00
FF07FF00
FF01FF00
FF00FF00
FF00FF80
FF00FF80
FF00FF80
FF007F80
FF007F80
FF007F80
FF007F80
FF007FC0
FF003FE0
FF001FE0
ENDCHAR
STARTCHAR 0053
ENCODING 83
SWIDTH 596 0
DWIDTH 29 0
BBX 27 34 1 0
BITMAP
003FC000
01FFF800
07FFFE00
1FFFFF00
1FFFFF80
3FFFFFC0
7FE0FFC0
7F803FC0
7F801FC0
7F801FE0
7F801FE0
7FC00000
7FF00000
7FFF0000
3FFFF000
3FFFFC00
1FFFFF00
0FFFFF80
03FFFFC0
007FFFC0
000FFFE0
0000FFE0
00003FE0
FF001FE0
FE001FE0
FF001FE0
FF003FE0
FFC07FE0
7FFFFFC0
7FFFFFC0
3FFFFF80
1FFFFF00
07FFFE00
01FFF000
ENDCHAR
STARTCHAR 0054
ENCODING 84
SWIDTH 596 0
DWIDTH 29 0
BBX 27 33 1 0
BITMAP
FFFFFFE0
FFFFFFE0
FFFFFFE0
FFFFFFE0
FFFFFFE0
FFFFFFE0
003FC000
003FC000
003FC000
003FC000
003FC000
003FC000
003FC000
003FC000
003FC000
003FC000
003FC000
003FC000
003FC000
003FC000
003FC000
003FC000
003FC000
003FC000
003FC000
003FC000
003FC000
003FC000
003FC000
003FC000
003FC000
003FC000
003FC000
ENDCHAR
STARTCHAR 0055
ENCODING 85
SWIDTH 596 0
DWIDTH 29 0
BBX 25 33 2 0
BITMAP
FF007F80
FF007F80
FF007F80
FF007F80
FF007F80
FF007F80
FF007F80
FF007F80
FF007F80
FF007F80
FF007F80
FF007F80
FF007F80
FF007F80
FF007F80
FF007F80
FF007F80
FF007F80
FF007F80
FF007F80
FF007F80
FF007F80
FF007F80
FF007F80
FF007F80
FF80FF80
7FC0FF00
7FFFFF00
3FFFFF00
3FFFFE00
1FFFFC00
0FFFF800
03FFE000
ENDCHAR
STARTCHAR 0056
ENCODING 86
SWIDTH 596 0
DWIDTH 29 0
BBX 29 33 0 0
BITMAP
FF8007F8
7F8007F0
7F8007F0
7F800FF0
3F800FF0
3FC00FE0
3FC00FE0
3FC01FE0
1FC01FC0
1FE01FC0
1FE01FC0
0FE03FC0
0FE03F80
0FF03F80
0FF03F80
07F03F80
07F07F00
07F87F00
03F87F00
03F87E00
03F8FE00
03FCFE00
01FCFE00
01FCFC00
01FDFC00
01FFFC00
00FFFC00
00FFF800
00FFF800
007FF800
007FF000
007FF000
007FF000
ENDCHAR
STARTCHAR 0057
ENCODING 87
SWIDTH 596 0
DWIDTH 29 0
BBX 29 33 0 0
BITMAP
FE0FC1F8
FE0FC1F8
FE0FC1F8
FE0FC1F8
7E0FC1F8
7E0FC3F8
7F1FE3F0
7F1FE3F0
7F1FE3F0
7F1FE3F0
7F1FE3F0
7F1FE3F0
7F1FE3F0
3F1FE7F0
3FBDF7E0
3FBDF7E0
3FBDF7E0
3FBDF7E0
3FBDF7E0
3FBDF7E0
3FBCF7E0
1FF8FFE0
1FF8FFE0
1FF8FFC0
1FF8FFC0
1FF8FFC0
1FF8FFC0
1FF87FC0
1FF87FC0
1FF07FC0
0FF07FC0
0FF07FC0
0FF07F80
ENDCHAR
STARTCHAR 0058
ENCODING 88
SWIDTH 596 0
DWIDTH 29 0
BBX 29 33 0 0
BITMAP
7FE00FF0
3FE01FE0
1FF01FE0
1FF03FC0
0FF83FC0
0FF87F80
07FC7F00
07FCFF00
03FEFE00
03FFFE00
01FFFC00
01FFFC00
00FFF800
00FFF800
007FF000
007FF000
007FF000
00FFF800
00FFF800
01FFFC00
01FFFE00
03FFFE00
03F9FF00
07F9FF00
07F0FF80
0FF0FF80
0FE07FC0
1FE07FC0
1FE03FE0
3FC03FE0
7FC01FF0
7F801FF0
FF800FF8
ENDCHAR
STARTCHAR 0059
ENCODING 89
SWIDTH 596 0
DWIDTH 29 0
BBX 29 33 0 0
BITMAP
FF800FF8
7FC00FF0
3FC01FF0
3FE01FE0
1FE01FE0
1FF03FC0
0FF03FC0
0FF07F80
07F87F80
07F8FF00
03FCFF00
03FCFE00
03FFFE00
01FFFC00
01FFFC00
00FFF800
00FFF800
007FF000
007FF000
003FF000
003FE000
001FE000
001FE000
001FE000
001FE000
001FE000
001FE000
001FE000
001FE000
001FE000
001FE000
001FE000
001FE000
ENDCHAR
STARTCHAR 005A
ENCODING 90
SWIDTH 596 0
DWIDTH 29 0
BBX 27 33 1 0
BITMAP
7FFFFFE0
7FFFFFE0
7FFFFFC0
7FFFFFC0
7FFFFF80
7FFFFF80
0001FF00
0003FE00
0003FE00
0007FC00
000FFC00
000FF800
001FF000
001FF000
003FE000
007FE000
007FC000
00FF8000
01FF8000
01FF0000
03FF0000
03FE0000
07FC0000
0FFC0000
0FF80000
1FF80000
1FF00000
3FFFFFE0
7FFFFFE0
7FFFFFE0
FFFFFFE0
FFFFFFE0
FFFFFFE0
ENDCHAR
STARTCHAR 005B
ENCODING 91
SWIDTH 596 0
DWIDTH 29 0
BBX 11 41 11 -8
BITMAP
FFE0
FFE0
FFE0
FC00
FC00
FC00
FC00
FC00
FC00
FC00
FC00
FC00
FC00
FC00
FC00
FC00
FC00
FC00
FC00
FC00
FC00
FC00
FC00
FC00
FC00
FC00
FC00
FC00
FC00
FC00
FC00
FC00
FC00
FC00
FC00
FC00
FC00
FFE0
FFE0
FFE0
FFE0
ENDCHAR
STARTCHAR 005C
ENCODING 92
SWIDTH 596 0
DWIDTH 29 0
BBX 29 41 0 -8
BITMAP
FC000000
7E000000
3E000000
3F000000
1F000000
0F800000
0FC00000
07C00000
07E00000
03E00000
03F00000
01F00000
01F80000
00F80000
007C0000
007E0000
003E0000
003F0000
001F0000
001F8000
000F8000
000FC000
0007C000
0003E000
0003F000
0001F000
0001F800
0000F800
0000FC00
00007C00
00007E00
00003E00
00003F00
00001F00
00000F80
00000FC0
000007C0
000007E0
000003E0
000003F0
000001F8
ENDCHAR
STARTCHAR 005D
ENCODING 93
SWIDTH 596 0
DWIDTH 29 0
BBX 11 41 7 -8
BITMAP
FFE0
FFE0
FFE0
07E0
07E0
07E0
07E0
07E0
07E0
07E0
07E0
07E0
07E0
07E0
07E0
07E0
07E0
07E0
07E0
07E0
07E0
07E0
07E0
07E0
07E0
07E0
07E0
07E0
07E0
07E0
07E0
07E0
07E0
07E0
07E0
07E0
07E0
FFE0
FFE0
FFE0
FFE0
ENDCHAR
STARTCHAR 005E
ENCODING 94
SWIDTH 596 0
DWIDTH 29 0
BBX 25 25 2 0
BITMAP
007F0000
007F0000
007F8000
00FF8000
00FF8000
01FFC000
01FFC000
01F7C000
03F7E000
03F3E000
03E3F000
07E1F000
07C1F000
0FC1F800
0FC0F800
0F80FC00
1F80FC00
1F807C00
3F007E00
3F007E00
3E003E00
7E003F00
7E001F00
FC001F80
FC001F80
ENDCHAR
STARTCHAR 005F
ENCODING 95
SWIDTH 596 0
DWIDTH 29 0
BBX 25 5 2 -7
BITMAP
FFFFFF80
FFFFFF80
FFFFFF80
FFFFFF80
FFFFFF80
ENDCHAR
STARTCHAR 0060
ENCODING 96
SWIDTH 596 0
DWIDTH 29 0
BBX 11 9 9 28
BITMAP
FE00
7E00
3F00
3F00
1F80
0F80
0FC0
07C0
03E0
ENDCHAR
STARTCHAR 0061
ENCODING 97
SWIDTH 596 0
DWIDTH 29 0
BBX 26 25 2 0
BITMAP
01FFC000
0FFFF000
1FFFF800
3FFFFC00
3FE7FE00
7F81FE00
7F00FE00
7F00FE00
0000FE00
0000FE00
00FFFE00
07FFFE00
1FFFFE00
3FFFFE00
7FC0FE00
7F80FE00
7F00FE00
FF01FE00
FF01FE00
FF83FE00
7FCFFF40
7FFFFFC0
7FFF7FC0
3FFE7FC0
0FF83FC0
ENDCHAR
STARTCHAR 0062
ENCODING 98
SWIDTH 596 0
DWIDTH 29 0
BBX 24 35 3 0
BITMAP
FF0000
FF0000
FF0000
FF0000
FF0000
FF0000
FF0000
FF0000
FF0000
FF0000
FF3FE0
FF7FF0
FFFFF8
FFFFFC
FFFFFE
FFC1FE
FF80FF
FF00FF
FF007F
FF007F
FF007F
FF007F
FF007F
FF007F
FF007F
FF007F
FF007F
FF00FF
FF80FF
FFC1FE
FFF7FE
FFFFFC
FFFFF8
FEFFF0
FE3FE0
ENDCHAR
STARTCHAR 0063
ENCODING 99
SWIDTH 596 0
DWIDTH 29 0
BBX 24 25 2 0
BITMAP
01FFC0
07FFF0
0FFFF8
1FFFFC
3FFFFC
3FC0FE
7F807E
7F807F
FF007F
FF007F
FF0000
FF0000
FF0000
FF0000
FF0000
FF007F
FF007F
7F007F
7F807E
3FC0FE
3FF3FE
1FFFFC
0FFFF8
07FFF0
01FFC0
ENDCHAR
STARTCHAR 0064
ENCODING 100
SWIDTH 596 0
DWIDTH 29 0
BBX 24 35 2 0
BITMAP
0000FF
0000FF
0000FF
0000FF
0000FF
0000FF
0000FF
0000FF
0000FF
0000FF
03FCFF
0FFFFF
1FFFFF
3FFFFF
3FFFFF
7F83FF
7F01FF
FF00FF
FF00FF
FF00FF
FF00FF
FF00FF
FF00FF
FF00FF
FF00FF
FF00FF
FF00FF
FF00FF
FF01FF
7F81FF
7FFFFF
3FFFFF
1FFFFF
0FFF7F
07FC7F
ENDCHAR
STARTCHAR 0065
ENCODING 101
SWIDTH 596 0
DWIDTH 29 0
BBX 25 25 2 0
BITMAP
00FFC000
07FFF000
0FFFFC00
1FFFFC00
3FFFFE00
3FC0FF00
7F807F00
7F807F00
FF007F80
FF007F80
FFFFFF80
FFFFFF80
FFFFFF80
FFFFFF80
FF000000
FF000000
FF003F80
7F803F80
7F807F80
7FC07F00
3FF3FF00
1FFFFE00
1FFFFC00
07FFF800
01FFE000
ENDCHAR
STARTCHAR 0066
ENCODING 102
SWIDTH 596 0
DWIDTH 29 0
BBX 22 35 4 0
BITMAP
001FFC
007FFC
00FFFC
01FFFC
01FFFC
03FE04
03FC00
03FC00
03FC00
03FC00
FFFFFC
FFFFFC
FFFFFC
FFFFFC
FFFFFC
FFFFFC
03FC00
03FC00
03FC00
03FC00
03FC00
03FC00
03FC00
03FC00
03FC00
03FC00
03FC00
03FC00
03FC00
FFFFFC
FFFFFC
FFFFFC
FFFFFC
FFFFFC
FFFFFC
ENDCHAR
STARTCHAR 0067
ENCODING 103
SWIDTH 596 0
DWIDTH 29 0
BBX 28 38 1 -9
BITMAP
000003F0
000007E0
000007E0
00000FE0
00FFFFC0
03FFFF00
0FFFFE00
0FFFFF00
1FE0FF00
1FC07F80
1FC03F80
1FC03F80
1FC03F80
1FC03F80
1FE07F00
0FFFFF00
0FFFFE00
03FFFC00
0FFFF800
1FE00000
3F800000
3F800000
3F800000
3FFFFE00
3FFFFF80
1FFFFFC0
0FFFFFE0
1FFFFFE0
3FFFFFE0
7F000FF0
7E0007F0
FE0007F0
FE000FE0
7F001FE0
7FFFFFE0
7FFFFFC0
3FFFFF80
0FFFFE00
ENDCHAR
STARTCHAR 0068
ENCODING 104
SWIDTH 596 0
DWIDTH 29 0
BBX 23 35 3 0
BITMAP
FF0000
FF0000
FF0000
FF0000
FF0000
FF0000
FF0000
FF0000
FF0000
FF0000
FF1FE0
FF3FF8
FFFFF8
FFFFFC
FFFFFE
FFC7FE
FF81FE
FF01FE
FF01FE
FF01FE
FF01FE
FF01FE
FF01FE
FF01FE
FF01FE
FF01FE
FF01FE
FF01FE
FF01FE
FF01FE
FF01FE
FF01FE
FF01FE
FF01FE
FF01FE
ENDCHAR
STARTCHAR 0069
ENCODING 105
SWIDTH 596 0
DWIDTH 29 0
BBX 23 35 4 0
BITMAP
007E00
007E00
007E00
007E00
007E00
000000
000000
000000
000000
000000
FFFF00
FFFF00
FFFF00
FFFF00
FFFF00
FFFF00
00FF00
00FF00
00FF00
00FF00
00FF00
00FF00
00FF00
00FF00
00FF00
00FF00
00FF00
00FF00
00FF00
FFFFFE
FFFFFE
FFFFFE
FFFFFE
FFFFFE
FFFFFE
ENDCHAR
STARTCHAR 006A
ENCODING 106
SWIDTH 596 0
DWIDTH 29 0
BBX 16 44 4 -9
BITMAP
007E
007E
007E
007E
007E
0000
0000
0000
0000
0000
FFFF
FFFF
FFFF
FFFF
FFFF
FFFF
00FF
00FF
00FF
00FF
00FF
00FF
00FF
00FF
00FF
00FF
00FF
00FF
00FF
00FF
00FF
00FF
00FF
00FF
00FF
00FF
00FF
00FF
E1FE
FFFE
FFFE
FFFC
FFF8
1FE0
ENDCHAR
STARTCHAR 006B
ENCODING 107
SWIDTH 596 0
DWIDTH 29 0
BBX 25 35 3 0
BITMAP
FF000000
FF000000
FF000000
FF000000
FF000000
FF000000
FF000000
FF000000
FF000000
FF000000
FF00FF80
FF01FF00
FF03FE00
FF03FC00
FF07F800
FF0FF800
FF1FF000
FF3FE000
FF3FC000
FF7F8000
FFFF8000
FFFF0000
FFFF0000
FFFF8000
FFFFC000
FFFFE000
FFFFE000
FFDFF000
FF0FF800
FF0FF800
FF07FC00
FF03FE00
FF03FE00
FF01FF00
FF00FF80
ENDCHAR
STARTCHAR 006C
ENCODING 108
SWIDTH 596 0
DWIDTH 29 0
BBX 23 35 3 0
BITMAP
FFFF00
FFFF00
FFFF00
FFFF00
FFFF00
FFFF00
00FF00
00FF00
00FF00
00FF00
00FF00
00FF00
00FF00
00FF00
00FF00
00FF00
00FF00
00FF00
00FF00
00FF00
00FF00
00FF00
00FF00
00FF00
00FF00
00FF00
00FF00
00FF00
00FF00
FFFFFE
FFFFFE
FFFFFE
FFFFFE
FFFFFE
FFFFFE
ENDCHAR
STARTCHAR 006D
ENCODING 109
SWIDTH 596 0
DWIDTH 29 0
BBX 25 25 2 0
BITMAP
F1F87E00
F3FCFF00
FFFFFF80
FFFFFF80
FFFFFF80
FFFFBF80
FC7F1F80
FC3F1F80
FC3F1F80
FC3F1F80
FC3F1F80
FC3F1F80
FC3F1F80
FC3F1F80
FC3F1F80
FC3F1F80
FC3F1F80
FC3F1F80
FC3F1F80
FC3F1F80
FC3F1F80
FC3F1F80
FC3F1F80
FC3F1F80
FC3F1F80
ENDCHAR
STARTCHAR 006E
ENCODING 110
SWIDTH 596 0
DWIDTH 29 0
BBX 23 25 3 0
BITMAP
FE3FE0
FEFFF0
FFFFF8
FFFFFC
FFFFFC
FFC7FE
FF81FE
FF01FE
FF01FE
FF01FE
FF01FE
FF01FE
FF01FE
FF01FE
FF01FE
FF01FE
FF01FE
FF01FE
FF01FE
FF01FE
FF01FE
FF01FE
FF01FE
FF01FE
FF01FE
ENDCHAR
STARTCHAR 006F
ENCODING 111
SWIDTH 596 0
DWIDTH 29 0
BBX 25 25 2 0
BITMAP
01FFC000
07FFF000
0FFFF800
1FFFFC00
3FFFFE00
3FC1FF00
7F80FF00
7F007F80
FF007F80
FF007F80
FF007F80
FF007F80
FF007F80
FF007F80
FF007F80
FF007F80
FF007F80
7F007F80
7F80FF00
7FC1FF00
3FF7FE00
1FFFFC00
0FFFF800
07FFF000
01FFC000
ENDCHAR
STARTCHAR 0070
ENCODING 112
SWIDTH 596 0
DWIDTH 29 0
BBX 24 34 3 -9
BITMAP
FE3FE0
FE7FF0
FEFFF8
FFFFFC
FFFFFE
FFC1FE
FF80FF
FF00FF
FF007F
FF007F
FF007F
FF007F
FF007F
FF007F
FF007F
FF007F
FF007F
FF00FF
FF80FF
FFC1FE
FFF7FE
FFFFFC
FFFFF8
FFFFF0
FF3FC0
FF0000
FF0000
FF0000
FF0000
FF0000
FF0000
FF0000
FF0000
FF0000
ENDCHAR
STARTCHAR 0071
ENCODING 113
SWIDTH 596 0
DWIDTH 29 0
BBX 24 34 2 -9
BITMAP
03FC3F
0FFF7F
1FFFFF
3FFFFF
3FFFFF
7F83FF
7F01FF
FF00FF
FF00FF
FF00FF
FF00FF
FF00FF
FF00FF
FF00FF
FF00FF
FF00FF
FF00FF
FF00FF
FF01FF
7F81FF
7FFFFF
3FFFFF
1FFFFF
0FFFFF
07FCFF
0000FF
0000FF
0000FF
0000FF
0000FF
0000FF
0000FF
0000FF
0000FF
ENDCHAR
STARTCHAR 0072
ENCODING 114
SWIDTH 596 0
DWIDTH 29 0
BBX 26 25 2 0
BITMAP
FFF1FC00
FFF7FF00
FFF7FF80
FFFFFF80
FFFFFFC0
FFFE7FC0
07FC1FC0
07F81FC0
07F81FC0
07F81FC0
07F80000
07F80000
07F80000
07F80000
07F80000
07F80000
07F80000
07F80000
07F80000
FFFFFC00
FFFFFC00
FFFFFC00
FFFFFC00
FFFFFC00
FFFFFC00
ENDCHAR
STARTCHAR 0073
ENCODING 115
SWIDTH 596 0
DWIDTH 29 0
BBX 23 25 3 0
BITMAP
03FF80
0FFFE0
3FFFF8
7FFFFC
7FEFFC
FE01FC
FE00FC
FE0000
FF8000
FFFC00
7FFFC0
7FFFF8
3FFFFC
0FFFFE
03FFFE
000FFE
0001FE
FC00FE
FC00FE
FE00FE
FFC7FE
7FFFFC
3FFFF8
1FFFF0
07FFC0
ENDCHAR
STARTCHAR 0074
ENCODING 116
SWIDTH 596 0
DWIDTH 29 0
BBX 25 33 2 0
BITMAP
007C0000
007C0000
007C0000
00FC0000
00FC0000
00FC0000
01FC0000
01FC0000
FFFFFF80
FFFFFF80
FFFFFF80
FFFFFF80
FFFFFF80
FFFFFF80
01FC0000
01FC0000
01FC0000
01FC0000
01FC0000
01FC0000
01FC0000
01FC0000
01FC0000
01FC0000
01FC0000
01FE0000
01FE0000
01FF8380
01FFFF80
00FFFF80
00FFFF80
007FFF80
001FFF00
ENDCHAR
STARTCHAR 0075
ENCODING 117
SWIDTH 596 0
DWIDTH 29 0
BBX 25 25 3 0
BITMAP
FF01FE00
FF01FE00
FF01FE00
FF01FE00
FF01FE00
FF01FE00
FF01FE00
FF01FE00
FF01FE00
FF01FE00
FF01FE00
FF01FE00
FF01FE00
FF01FE00
FF01FE00
FF01FE00
FF01FE00
FF01FE00
FF03FE00
FF87FE00
FFFFFF80
7FFFFF80
7FFFFF80
3FFEFF80
0FF87F80
ENDCHAR
STARTCHAR 0076
ENCODING 118
SWIDTH 596 0
DWIDTH 29 0
BBX 27 25 1 0
BITMAP
FF801FE0
7F801FC0
7F803FC0
3FC03FC0
3FC03F80
3FC07F80
1FE07F00
1FE07F00
1FE07F00
0FF0FE00
0FF0FE00
0FF0FE00
07F9FC00
07F9FC00
03F9FC00
03FFF800
03FFF800
01FFF800
01FFF000
01FFF000
00FFE000
00FFE000
00FFE000
007FC000
007FC000
ENDCHAR
STARTCHAR 0077
ENCODING 119
SWIDTH 596 0
DWIDTH 29 0
BBX 29 25 0 0
BITMAP
FC0FC1F8
FC1FC1F8
FC1FC1F8
7E1FC1F8
7E1FE1F0
7E1FE3F0
7E3FE3F0
7E3FE3F0
7E3FE3F0
3F3FE3F0
3F3FF7E0
3F3DF7E0
3F7DF7E0
3F7DF7E0
1FFCF7E0
1FFCF7E0
1FFCFFC0
1FF8FFC0
1FF8FFC0
1FF8FFC0
0FF87FC0
0FF87F80
0FF07F80
0FF07F80
0FF07F80
ENDCHAR
STARTCHAR 0078
ENCODING 120
SWIDTH 596 0
DWIDTH 29 0
BBX 27 25 1 0
BITMAP
7FC03FE0
3FE07FC0
3FE07F80
1FF0FF00
0FF0FF00
0FF9FE00
07FFFC00
03FFFC00
03FFF800
01FFF000
00FFF000
00FFE000
00FFE000
00FFF000
01FFF000
03FFF800
03FFF800
07FBFC00
0FF3FE00
0FF1FE00
1FE0FF00
3FE0FF80
3FC07F80
7F807FC0
FF803FE0
ENDCHAR
STARTCHAR 0079
ENCODING 121
SWIDTH 596 0
DWIDTH 29 0
BBX 26 34 2 -9
BITMAP
FF003FC0
FF003F80
7F807F80
7F807F00
7F807F00
3FC0FF00
3FC0FE00
3FC0FE00
1FE1FC00
1FE1FC00
0FE1FC00
0FF3F800
0FF3F800
07F3F800
07FBF000
03FFF000
03FFE000
03FFE000
01FFE000
01FFC000
00FFC000
00FFC000
00FF8000
007F8000
007F0000
007F0000
00FE0000
00FE0000
43FC0000
7FFC0000
7FF80000
7FF00000
7FE00000
3F800000
ENDCHAR
STARTCHAR 007A
ENCODING 122
SWIDTH 596 0
DWIDTH 29 0
BBX 21 25 4 0
BITMAP
7FFFF8
7FFFF8
7FFFF8
7FFFF0
7FFFE0
003FE0
003FC0
007FC0
007F80
00FF00
01FF00
01FE00
03FE00
03FC00
07F800
0FF800
0FF000
1FF000
1FE000
3FC000
7FFFF8
7FFFF8
FFFFF8
FFFFF8
FFFFF8
ENDCHAR
STARTCHAR 007B
ENCODING 123
SWIDTH 596 0
DWIDTH 29 0
BBX 13 42 8 -8
BITMAP
0030
03F8
07F8
0FF8
0FC0
0FC0
0FC0
0F80
0F80
0F80
0F80
0F80
0F80
0F80
0F80
0F80
0F80
0F80
1F80
FF00
FE00
F800
FF00
3F00
1F80
0F80
0F80
0F80
0F80
0F80
0F80
0F80
0F80
0F80
0F80
0F80
0FC0
0FC0
0FE0
07F8
03F8
00F8
ENDCHAR
STARTCHAR 007C
ENCODING 124
SWIDTH 596 0
DWIDTH 29 0
BBX 5 45 12 -10
BITMAP
F8
F8
F8
F8
F8
F8
F8
F8
F8
F8
F8
F8
F8
F8
F8
F8
F8
F8
F8
F8
F8
F8
F8
F8
F8
F8
F8
F8
F8
F8
F8
F8
F8
F8
F8
F8
F8
F8
F8
F8
F8
F8
F8
F8
F8
ENDCHAR
STARTCHAR 007D
ENCODING 125
SWIDTH 596 0
DWIDTH 29 0
BBX 13 42 8 -8
BITMAP
2000
FE00
FF00
FF80
1F80
0F80
0F80
0F80
0F80
0F80
0F80
0F80
0F80
0F80
0F80
0F80
0F80
0FC0
07C0
07F8
03F8
00F8
07F8
07E0
0FC0
0F80
0F80
0F80
0F80
0F80
0F80
0F80
0F80
0F80
0F80
0F80
0F80
1F80
3F80
FF00
FF00
F800
ENDCHAR
STARTCHAR 007E
ENCODING 126
SWIDTH 596 0
DWIDTH 29 0
BBX 27 9 1 10
BITMAP
03800020
1FF80060
3FFE00E0
FFFFFFE0
FFFFFFE0
FFFFFFE0
F00FFFC0
C001FF00
80003800
ENDCHAR
STARTCHAR 00A0
ENCODING 160
SWIDTH 596 0
DWIDTH 29 0
BBX 0 0 0 0
BITMAP
ENDCHAR
STARTCHAR 00A1
ENCODING 161
SWIDTH 596 0
DWIDTH 29 0
BBX 9 34 10 -9
BITMAP
7F80
7F80
7F80
7F80
7F80
7F80
7F80
7F80
0000
0000
3E00
3E00
3E00
3E00
3F00
3F00
3F00
7F00
7F00
7F00
7F00
7F00
7F00
7F00
7F00
7F00
7F80
7F80
FF80
FF80
FF80
FF80
FF80
FF80
ENDCHAR
STARTCHAR 00A2
ENCODING 162
SWIDTH 596 0
DWIDTH 29 0
BBX 24 34 3 0
BITMAP
007E00
003C00
003C00
003C00
003C00
01FFC0
07FFF0
1FFFF8
1FFFFC
3FE3FC
7F80FE
7F80FE
FF007E
FF007E
FF007F
FF0000
FF0000
FF0000
FF0000
FF0000
FF007F
FF007E
FF007E
7F807E
7FC0FE
3FFFFC
1FFFF8
0FFFF8
07FFE0
01FF80
003C00
003C00
003C00
007E00
ENDCHAR
STARTCHAR 00A3
ENCODING 163
SWIDTH 596 0
DWIDTH 29 0
BBX 27 34 1 0
BITMAP
000FE000
007FFC00
00FFFF00
03FFFF80
03FFFFC0
07FFFFC0
0FF83FE0
0FF01FE0
0FF01FE0
0FF01FE0
0FF01FE0
0FF00000
0FF00000
0FF00000
0FF00000
FFFFC000
FFFFC000
FFFFC000
FFFFC000
FFFFC000
0FF00000
0FE00000
0FE00000
0FE00000
0FE00000
0FE00000
0FE00000
0FE00000
FFFFFF80
FFFFFF80
FFFFFF80
FFFFFF80
FFFFFF80
FFFFFF80
ENDCHAR
STARTCHAR 00A4
ENCODING 164
SWIDTH 596 0
DWIDTH 29 0
BBX 25 25 2 4
BITMAP
20000200
70FF8700
FBFFEF80
7FFFFF00
3FFFFE00
1FC1FC00
3F007E00
7E003F00
7E001F00
7C001F00
7C001F00
78000F80
78000F80
78000F80
7C001F80
7C001F00
7C001F00
3E003F00
3F007E00
1FC1FC00
3FFFFE00
7FFFFF00
FBFFEF80
71FFC700
201C0200
ENDCHAR
STARTCHAR 00A5
ENCODING 165
SWIDTH 596 0
DWIDTH 29 0
BBX 29 33 0 0
BITMAP
FF800FF8
7FC00FF0
3FC01FE0
3FE01FE0
1FE01FE0
1FF03FC0
0FF03FC0
0FF07F80
07F87F80
07F8FF00
03FCFF00
7FFCFFF0
7FFFFFF0
7FFFFFF0
7FFFFFF0
00FFF800
00FFF800
007FF000
7FFFFFF0
7FFFFFF0
7FFFFFF0
7FFFFFF0
001FE000
001FE000
001FE000
001FE000
001FE000
001FE000
001FE000
001FE000
001FE000
001FE000
001FE000
ENDCHAR
STARTCHAR 00A6
ENCODING 166
SWIDTH 596 0
DWIDTH 29 0
BBX 5 45 12 -10
BITMAP
F8
F8
F8
F8
F8
F8
F8
F8
F8
F8
F8
F8
F8
F8
F8
F8
F8
F8
00
00
00
00
00
00
00
00
00
F8
F8
F8
F8
F8
F8
F8
F8
F8
F8
F8
F8
F8
F8
F8
F8
F8
F8
ENDCHAR
STARTCHAR 00A7
ENCODING 167
SWIDTH 596 0
DWIDTH 29 0
BBX 23 43 3 -9
BITMAP
007E00
07FFC0
1FFFF0
3FFFF8
7FFFFC
7F83FC
7F00FC
7E00FC
7F0000
7F0000
7FC000
7FF000
3FFC00
1FFF00
0FFFC0
1FFFF0
3FFFF8
7E3FFC
FC0FFE
FC03FE
FC00FE
FC007E
FE007E
FF007E
7FC07E
7FF87C
3FFFFC
1FFFF8
07FFF0
01FFF0
007FF8
001FFC
0007FC
0001FC
0000FE
7E00FE
7F00FC
7F81FC
7FFFFC
3FFFF8
1FFFF0
07FFE0
01FF00
ENDCHAR
STARTCHAR 00A8
ENCODING 168
SWIDTH 596 0
DWIDTH 29 0
BBX 17 6 6 29
BITMAP
FC1F80
FC1F80
FC1F80
FC1F80
FC1F80
FC1F80
ENDCHAR
STARTCHAR 00A9
ENCODING 169
SWIDTH 596 0
DWIDTH 29 0
BBX 29 34 0 0
BITMAP
001FC000
00FFF800
01FFFE00
07C01F00
0F800780
1E0003C0
1C0001C0
3C1FC1E0
383FF0E0
78FFF8F0
70FFFC70
71F87C70
71F03C70
71F03E38
E1F03E38
E1F00038
E1F00038
E1F00038
E1F00038
E1F03E38
E1F03E38
71F03E38
71F03C70
71F87C70
70FFF870
387FF8F0
383FE0E0
1C0381E0
1E0003C0
0F000780
07800F00
03F03E00
01FFFC00
007FF000
ENDCHAR
STARTCHAR 00AA
ENCODING 170
SWIDTH 596 0
DWIDTH 29 0
BBX 16 16 7 18
BITMAP
0FC0
3FF8
7FF8
FC7C
F87C
007C
01FC
3FFC
FFFC
F87C
F87C
F87C
FCFD
FFFF
7F3F
1E1E
ENDCHAR
STARTCHAR 00AB
ENCODING 171
SWIDTH 596 0
DWIDTH 29 0
BBX 22 17 3 8
BITMAP
03E07C
07E0FC
0FC1F8
0FC1F8
1F83F0
3F87F0
3F07E0
7F0FE0
FE1FC0
7F0FC0
3F0FE0
3F87E0
1F83F0
0FC1F0
0FC1F8
07E0F8
03E07C
ENDCHAR
STARTCHAR 00AC
ENCODING 172
SWIDTH 596 0
DWIDTH 29 0
BBX 25 15 2 8
BITMAP
FFFFFF80
FFFFFF80
FFFFFF80
FFFFFF80
FFFFFF80
FFFFFF80
00001F80
00001F80
00001F80
00001F80
00001F80
00001F80
00001F80
00001F80
00001F80
ENDCHAR
STARTCHAR 00AD
ENCODING 173
SWIDTH 596 0
DWIDTH 29 0
BBX 13 6 8 10
BITMAP
FFF8
FFF8
FFF8
FFF8
FFF8
FFF8
ENDCHAR
STARTCHAR 00AE
ENCODING 174
SWIDTH 596 0
DWIDTH 29 0
BBX 29 34 0 0
BITMAP
001FC000
00FFF800
01FFFE00
07C01F00
0F800780
1E0003C0
1C0001C0
3CFF81E0
38FFF8E0
78FFFCF0
70FFFE70
70F07E70
70F03E70
70F03E38
E0F03E38
E0F07C38
E0FFF838
E0FFF038
E0FFF838
E0F0FC38
E0F07C38
70F03E38
70F03E70
70F03E70
70F03E70
38F03EF0
38F03FE0
1C000FE0
1E0003C0
0F000780
07800F00
03F07E00
01FFFC00
007FF000
ENDCHAR
STARTCHAR 00AF
ENCODING 175
SWIDTH 596 0
DWIDTH 29 0
BBX 17 4 6 30
BITMAP
FFFF80
FFFF80
FFFF80
FFFF80
ENDCHAR
STARTCHAR 00B0
ENCODING 176
SWIDTH 596 0
DWIDTH 29 0
BBX 15 15 7 19
BITMAP
07C0
1FF0
3FF8
7FFC
783E
F01E
F01E
F01E
F01E
F81E
783E
7FFC
3FF8
1FF0
03C0
ENDCHAR
STARTCHAR 00B1
ENCODING 177
SWIDTH 596 0
DWIDTH 29 0
BBX 25 25 2 0
BITMAP
003E0000
003E0000
003E0000
003E0000
003E0000
003E0000
FFFFFF80
FFFFFF80
FFFFFF80
FFFFFF80
FFFFFF80
FFFFFF80
003E0000
003E0000
003E0000
003E0000
003E0000
003E0000
00000000
00000000
FFFFFF80
FFFFFF80
FFFFFF80
FFFFFF80
FFFFFF80
ENDCHAR
STARTCHAR 00B2
ENCODING 178
SWIDTH 596 0
DWIDTH 29 0
BBX 13 18 8 21
BITMAP
1FC0
3FF0
7FF0
F9F8
F0F8
F078
F078
00F8
00F8
03F0
07E0
0FC0
3F00
7E00
FC00
FFF8
FFF8
FFF8
ENDCHAR
STARTCHAR 00B3
ENCODING 179
SWIDTH 596 0
DWIDTH 29 0
BBX 14 19 8 20
BITMAP
0FC0
3FE0
7FF0
F9F8
F078
F078
0078
00F0
0FF0
0FE0
0FF8
0078
0078
E07C
F078
F9F8
FFF8
7FF0
1FC0
ENDCHAR
STARTCHAR 00B4
ENCODING 180
SWIDTH 596 0
DWIDTH 29 0
BBX 11 9 9 28
BITMAP
0FE0
0FC0
1F80
1F80
3F00
3E00
7E00
7C00
F800
ENDCHAR
STARTCHAR 00B5
ENCODING 181
SWIDTH 596 0
DWIDTH 29 0
BBX 25 33 3 -8
BITMAP
FF01FE00
FF01FE00
FF01FE00
FF01FE00
FF01FE00
FF01FE00
FF01FE00
FF01FE00
FF01FE00
FF01FE00
FF01FE00
FF01FE00
FF01FE00
FF01FE00
FF01FE00
FF01FE00
FF01FE00
FF01FE00
FF03FE00
FF87FE00
FFFFFF80
FFFFFF80
FFFFFF80
FFFEFF80
FFFC7F80
FE000000
FE000000
FE000000
FE000000
FF000000
FF000000
FF000000
FF000000
ENDCHAR
STARTCHAR 00B6
ENCODING 182
SWIDTH 596 0
DWIDTH 29 0
BBX 24 41 2 -8
BITMAP
03FFFF
0FFFFF
1FFFFF
3FF878
7FF878
7FF878
FFF878
FFF878
FFF878
FFF878
FFF878
FFF878
FFF878
FFF878
7FF878
7FF878
3FF878
1FF878
0FF878
07F878
00F878
003878
003878
003878
003878
003878
003878
003878
003878
003878
003878
003878
003878
003878
003878
003878
003878
003878
003878
003878
003878
ENDCHAR
STARTCHAR 00B7
ENCODING 183
SWIDTH 596 0
DWIDTH 29 0
BBX 8 8 11 14
BITMAP
FF
FF
FF
FF
FF
FF
FF
FF
ENDCHAR
STARTCHAR 00B8
ENCODING 184
SWIDTH 596 0
DWIDTH 29 0
BBX 11 9 9 -10
BITMAP
0E00
0FC0
0FE0
01E0
01E0
41E0
7FE0
FFC0
7F80
ENDCHAR
STARTCHAR 00B9
ENCODING 185
SWIDTH 596 0
DWIDTH 29 0
BBX 12 18 8 21
BITMAP
0180
0780
7F80
FF80
FF80
0F80
0F80
0F80
0F80
0F80
0F80
0F80
0F80
0F80
0F80
FFF0
FFF0
FFF0
ENDCHAR
STARTCHAR 00BA
ENCODING 186
SWIDTH 596 0
DWIDTH 29 0
BBX 15 16 7 18
BITMAP
07C0
1FF0
3FFC
7C7C
F83E
F83E
F83E
F83E
F83E
F83E
F83E
783E
7EFC
3FF8
1FF0
0380
ENDCHAR
STARTCHAR 00BB
ENCODING 187
SWIDTH 596 0
DWIDTH 29 0
BBX 22 17 4 8
BITMAP
F81F00
7C0F80
7E0FC0
3F07C0
3F07E0
1F83F0
1FC3F8
0FC1F8
0FE1FC
0FC1F8
1FC3F8
1F83F0
3F07E0
3F07E0
7E0FC0
7C0F80
FC1F80
ENDCHAR
STARTCHAR 00BC
ENCODING 188
SWIDTH 596 0
DWIDTH 29 0
BBX 29 34 0 0
BITMAP
01800000
0F8000F8
7F8001F0
FF8001E0
FF8003C0
0F8007C0
0F800780
0F800F00
0F801E00
0F803C00
0F803C00
0F807800
0F80F000
0F80E000
0F810000
FFF00000
FFF01E00
FFF01E00
00001E60
00003C60
003C3CE0
003838E0
007879E0
00F071E0
01E0F1E0
01E0E1E0
03C1C1E0
0781FFF8
0F01FFF8
1F01FFF8
1E0001E0
3C0001E0
7C0001E0
F80001E0
ENDCHAR
STARTCHAR 00BD
ENCODING 189
SWIDTH 596 0
DWIDTH 29 0
BBX 29 34 0 0
BITMAP
01800000
0F8000F8
7F8001F0
FF8001E0
FF8003C0
0F800780
0F800F80
0F800F00
0F801E00
0F803C00
0F803C00
0F807800
0F80F000
0F81E000
0F800000
FFF00000
FFF01FC0
FFF03FF0
00007FF0
0000F9F8
003CF0F8
0078F078
0078F078
00F000F8
01E000F8
03C003F0
03C007E0
07800FC0
0F003F00
1F007E00
1E00FC00
3C00FFF8
7C00FFF8
F800FFF8
ENDCHAR
STARTCHAR 00BE
ENCODING 190
SWIDTH 596 0
DWIDTH 29 0
BBX 29 34 0 0
BITMAP
0FC00000
3FF000F8
7FF801F0
7CF801E0
787C03C0
707C07C0
00780780
00F80F00
07F01E00
07F03C00
07F83C00
007C7800
003CF000
F03CE000
F07D0000
FCFC0000
7FF81E00
3FF01E00
0FC01E60
00003C60
003C3CE0
003838E0
007879E0
00F071E0
01E0F1E0
01E0E1E0
03C1C1E0
0781FFF8
0F01FFF8
1F01FFF8
1E0001E0
3C0001E0
7C0001E0
F80001E0
ENDCHAR
STARTCHAR 00BF
ENCODING 191
SWIDTH 596 0
DWIDTH 29 0
BBX 24 34 3 -9
BITMAP
01FE00
01FE00
01FE00
01FE00
01FE00
01FE00
01FE00
01FE00
000000
000000
00FC00
00FC00
00FC00
00FC00
01FC00
03FC00
0FF800
1FF000
3FE000
7FC000
FF8000
FF8000
FF00FE
FF00FF
FF00FF
FF00FE
FF00FE
FF81FE
7FFFFC
7FFFFC
3FFFF8
1FFFE0
07FFC0
01FE00
ENDCHAR
STARTCHAR 00C0
ENCODING 192
SWIDTH 596 0
DWIDTH 29 0
BBX 29 43 0 0
BITMAP
03FC0000
00FC0000
007E0000
003F0000
003F8000
001F8000
000FC000
00000000
00000000
00000000
007FF000
007FF000
007FF000
00FFF800
00FFF800
00FFF800
00FFFC00
01FDFC00
01FDFC00
01F9FC00
03F9FE00
03F8FE00
03F8FE00
03F0FE00
07F0FF00
07F07F00
07F07F00
07F07F80
0FE07F80
0FE03F80
0FE03F80
1FFFFFC0
1FFFFFC0
1FFFFFC0
1FFFFFE0
3FFFFFE0
3F801FE0
3F800FE0
3F800FF0
7F800FF0
7F800FF0
7F000FF8
FF0007F8
ENDCHAR
STARTCHAR 00C1
ENCODING 193
SWIDTH 596 0
DWIDTH 29 0
BBX 29 43 0 0
BITMAP
0000FE00
0001FC00
0003F800
0003F000
0007E000
000FC000
000F8000
00000000
00000000
00000000
007FF000
007FF000
007FF000
00FFF800
00FFF800
00FFF800
00FFFC00
01FDFC00
01FDFC00
01F9FC00
03F9FE00
03F8FE00
03F8FE00
03F0FE00
07F0FF00
07F07F00
07F07F00
07F07F80
0FE07F80
0FE03F80
0FE03F80
1FFFFFC0
1FFFFFC0
1FFFFFC0
1FFFFFE0
3FFFFFE0
3F801FE0
3F800FE0
3F800FF0
7F800FF0
7F800FF0
7F000FF8
FF0007F8
ENDCHAR
STARTCHAR 00C2
ENCODING 194
SWIDTH 596 0
DWIDTH 29 0
BBX 29 43 0 0
BITMAP
001FE000
003FE000
007DF000
00FCF800
01F8FC00
03F07E00
04000100
00000000
00000000
00000000
007FF000
007FF000
007FF000
00FFF800
00FFF800
00FFF800
00FFFC00
01FDFC00
01FDFC00
01F9FC00
03F9FE00
03F8FE00
03F8FE00
03F0FE00
07F0FF00
07F07F00
07F07F00
07F07F80
0FE07F80
0FE03F80
0FE03F80
1FFFFFC0
1FFFFFC0
1FFFFFC0
1FFFFFE0
3FFFFFE0
3F801FE0
3F800FE0
3F800FF0
7F800FF0
7F800FF0
7F000FF8
FF0007F8
ENDCHAR
STARTCHAR 00C3
ENCODING 195
SWIDTH 596 0
DWIDTH 29 0
BBX 29 43 0 0
BITMAP
00FC0F00
01FF8F00
03FFFF00
03FFFE00
07DFFE00
0783FC00
07002000
00000000
00000000
00000000
007FF000
007FF000
007FF000
00FFF800
00FFF800
00FFF800
00FFFC00
01FDFC00
01FDFC00
01F9FC00
03F9FE00
03F8FE00
03F8FE00
03F0FE00
07F0FF00
07F07F00
07F07F00
07F07F80
0FE07F80
0FE03F80
0FE03F80
1FFFFFC0
1FFFFFC0
1FFFFFC0
1FFFFFE0
3FFFFFE0
3F801FE0
3F800FE0
3F800FF0
7F800FF0
7F800FF0
7F000FF8
FF0007F8
ENDCHAR
STARTCHAR 00C4
ENCODING 196
SWIDTH 596 0
DWIDTH 29 0
BBX 29 43 0 0
BITMAP
03F07E00
03F07E00
03F07E00
03F07E00
03F07E00
03F07E00
00000000
00000000
00000000
00000000
007FF000
007FF000
007FF000
00FFF800
00FFF800
00FFF800
00FFFC00
01FDFC00
01FDFC00
01F9FC00
03F9FE00
03F8FE00
03F8FE00
03F0FE00
07F0FF00
07F07F00
07F07F00
07F07F80
0FE07F80
0FE03F80
0FE03F80
1FFFFFC0
1FFFFFC0
1FFFFFC0
1FFFFFE0
3FFFFFE0
3F801FE0
3F800FE0
3F800FF0
7F800FF0
7F800FF0
7F000FF8
FF0007F8
ENDCHAR
STARTCHAR 00C5
ENCODING 197
SWIDTH 596 0
DWIDTH 29 0
BBX 29 46 0 0
BITMAP
000F8000
001FC000
003FE000
0078F000
00787000
00787000
0038F000
003FE000
001FC000
00078000
00000000
00000000
00000000
007FF000
007FF000
007FF000
00FFF800
00FFF800
00FFF800
00FFFC00
01FDFC00
01FDFC00
01F9FC00
03F9FE00
03F8FE00
03F8FE00
03F0FE00
07F0FF00
07F07F00
07F07F00
07F07F80
0FE07F80
0FE03F80
0FE03F80
1FFFFFC0
1FFFFFC0
1FFFFFC0
1FFFFFE0
3FFFFFE0
3F801FE0
3F800FE0
3F800FF0
7F800FF0
7F800FF0
7F000FF8
FF0007F8
ENDCHAR
STARTCHAR 00C6
ENCODING 198
SWIDTH 596 0
DWIDTH 29 0
BBX 29 33 0 0
BITMAP
00FFFFF8
00FFFFF8
01FFFFF0
01FFFFF0
01FFFFF0
01FFFFF0
03FBF000
03FBF000
03FBF000
03F3F000
07F3F000
07F3F000
07F3F000
07F3FFE0
0FE3FFE0
0FE3FFE0
0FE3FFE0
0FE3FFE0
0FE3FFE0
1FC3F000
1FC3F000
1FFFF000
1FFFF000
3FFFF000
3FFFF000
3FFFF000
3F83F000
7F83FFF0
7F83FFF0
7F03FFF0
7F03FFF8
FF03FFF8
FF03FFF8
ENDCHAR
STARTCHAR 00C7
ENCODING 199
SWIDTH 596 0
DWIDTH 29 0
BBX 26 44 1 -10
BITMAP
003F8000
01FFF000
07FFFC00
0FFFFE00
1FFFFF00
3FFFFF00
3FF1FF80
7FC07F80
7F803FC0
FF803FC0
FF001FC0
FF001FC0
FF001FC0
FF001FC0
FF000000
FF000000
FF000000
FF000000
FF000000
FF000000
FF000000
FF001FC0
FF001FC0
FF001FC0
FF001FC0
FF803FC0
7F803FC0
7FC07F80
3FFFFF80
3FFFFF00
1FFFFE00
0FFFFC00
07FFF800
01FFE000
00000000
000E0000
000FC000
000FE000
0001E000
0001E000
0041E000
007FE000
00FFC000
007F8000
ENDCHAR
STARTCHAR 00C8
ENCODING 200
SWIDTH 596 0
DWIDTH 29 0
BBX 24 43 3 0
BITMAP
0FE000
07F000
03F800
01F800
00FC00
007E00
003E00
000000
000000
000001
FFFFFE
FFFFFE
FFFFFE
FFFFFE
FFFFFE
FFFFFE
FF0000
FF0000
FF0000
FF0000
FF0000
FF0000
FF0000
FFFFFC
FFFFFC
FFFFFC
FFFFFC
FFFFFC
FFFFFC
FF0000
FF0000
FF0000
FF0000
FF0000
FF0000
FF0000
FF0000
FFFFFE
FFFFFE
FFFFFE
FFFFFE
FFFFFF
FFFFFF
ENDCHAR
STARTCHAR 00C9
ENCODING 201
SWIDTH 596 0
DWIDTH 29 0
BBX 24 43 3 0
BITMAP
0007F0
000FE0
000FC0
001F80
003F00
003E00
007E00
000000
000000
000001
FFFFFE
FFFFFE
FFFFFE
FFFFFE
FFFFFE
FFFFFE
FF0000
FF0000
FF0000
FF0000
FF0000
FF0000
FF0000
FFFFFC
FFFFFC
FFFFFC
FFFFFC
FFFFFC
FFFFFC
FF0000
FF0000
FF0000
FF0000
FF0000
FF0000
FF0000
FF0000
FFFFFE
FFFFFE
FFFFFE
FFFFFE
FFFFFF
FFFFFF
ENDCHAR
STARTCHAR 00CA
ENCODING 202
SWIDTH 596 0
DWIDTH 29 0
BBX 24 43 3 0
BITMAP
00FF00
01FF80
03FFC0
07E7E0
0FC3E0
0F81F0
100008
000000
000000
000001
FFFFFE
FFFFFE
FFFFFE
FFFFFE
FFFFFE
FFFFFE
FF0000
FF0000
FF0000
FF0000
FF0000
FF0000
FF0000
FFFFFC
FFFFFC
FFFFFC
FFFFFC
FFFFFC
FFFFFC
FF0000
FF0000
FF0000
FF0000
FF0000
FF0000
FF0000
FF0000
FFFFFE
FFFFFE
FFFFFE
FFFFFE
FFFFFF
FFFFFF
ENDCHAR
STARTCHAR 00CB
ENCODING 203
SWIDTH 596 0
DWIDTH 29 0
BBX 24 43 3 0
BITMAP
1F81F8
1F81F8
1F81F8
1F81F8
1F81F8
1F81F8
000000
000000
000000
000001
FFFFFE
FFFFFE
FFFFFE
FFFFFE
FFFFFE
FFFFFE
FF0000
FF0000
FF0000
FF0000
FF0000
FF0000
FF0000
FFFFFC
FFFFFC
FFFFFC
FFFFFC
FFFFFC
FFFFFC
FF0000
FF0000
FF0000
FF0000
FF0000
FF0000
FF0000
FF0000
FFFFFE
FFFFFE
FFFFFE
FFFFFE
FFFFFF
FFFFFF
ENDCHAR
STARTCHAR 00CC
ENCODING 204
SWIDTH 596 0
DWIDTH 29 0
BBX 22 43 4 0
BITMAP
3FC000
0FC000
07E000
03F000
03F800
01F800
00FC00
000000
000000
000000
FFFFFC
FFFFFC
FFFFFC
FFFFFC
FFFFFC
01FE00
01FE00
01FE00
01FE00
01FE00
01FE00
01FE00
01FE00
01FE00
01FE00
01FE00
01FE00
01FE00
01FE00
01FE00
01FE00
01FE00
01FE00
01FE00
01FE00
01FE00
01FE00
FFFFFC
FFFFFC
FFFFFC
FFFFFC
FFFFFC
FFFFFC
ENDCHAR
STARTCHAR 00CD
ENCODING 205
SWIDTH 596 0
DWIDTH 29 0
BBX 22 43 4 0
BITMAP
000FE0
001FC0
003F80
003F00
007E00
00FC00
00F800
000000
000000
000000
FFFFFC
FFFFFC
FFFFFC
FFFFFC
FFFFFC
01FE00
01FE00
01FE00
01FE00
01FE00
01FE00
01FE00
01FE00
01FE00
01FE00
01FE00
01FE00
01FE00
01FE00
01FE00
01FE00
01FE00
01FE00
01FE00
01FE00
01FE00
01FE00
FFFFFC
FFFFFC
FFFFFC
FFFFFC
FFFFFC
FFFFFC
ENDCHAR
STARTCHAR 00CE
ENCODING 206
SWIDTH 596 0
DWIDTH 29 0
BBX 22 43 4 0
BITMAP
01FE00
03FE00
07DF00
0FCF80
1F8FC0
3F07E0
400010
000000
000000
000000
FFFFFC
FFFFFC
FFFFFC
FFFFFC
FFFFFC
01FE00
01FE00
01FE00
01FE00
01FE00
01FE00
01FE00
01FE00
01FE00
01FE00
01FE00
01FE00
01FE00
01FE00
01FE00
01FE00
01FE00
01FE00
01FE00
01FE00
01FE00
01FE00
FFFFFC
FFFFFC
FFFFFC
FFFFFC
FFFFFC
FFFFFC
ENDCHAR
STARTCHAR 00CF
ENCODING 207
SWIDTH 596 0
DWIDTH 29 0
BBX 22 43 4 0
BITMAP
3F07E0
3F07E0
3F07E0
3F07E0
3F07E0
3F07E0
000000
000000
000000
000000
FFFFFC
FFFFFC
FFFFFC
FFFFFC
FFFFFC
01FE00
01FE00
01FE00
01FE00
01FE00
01FE00
01FE00
01FE00
01FE00
01FE00
01FE00
01FE00
01FE00
01FE00
01FE00
01FE00
01FE00
01FE00
01FE00
01FE00
01FE00
01FE00
FFFFFC
FFFFFC
FFFFFC
FFFFFC
FFFFFC
FFFFFC
ENDCHAR
STARTCHAR 00D0
ENCODING 208
SWIDTH 596 0
DWIDTH 29 0
BBX 29 33 0 0
BITMAP
1FFFF800
1FFFFE00
1FFFFF80
1FFFFFC0
1FFFFFE0
1FFFFFE0
1FE03FF0
1FE01FF0
1FE00FF0
1FE00FF8
1FE00FF8
1FE007F8
1FE007F8
1FE007F8
FFFF87F8
FFFF87F8
FFFF87F8
FFFF87F8
FFFF87F8
1FE007F8
1FE007F8
1FE00FF8
1FE00FF8
1FE00FF8
1FE00FF0
1FE01FF0
1FE07FE0
1FFFFFE0
1FFFFFC0
1FFFFF80
1FFFFF00
1FFFFC00
1FFFF000
ENDCHAR
STARTCHAR 00D1
ENCODING 209
SWIDTH 596 0
DWIDTH 29 0
BBX 24 43 3 0
BITMAP
07E078
0FFC78
1FFFF8
1FFFF0
3EFFF0
3C1FE0
380100
000000
000000
000000
FF00FF
FF00FF
FF80FF
FF80FF
FFC0FF
FFC0FF
FFC0FF
FFE0FF
FFE0FF
FFF0FF
FFF0FF
FFF8FF
FFF8FF
FFFCFF
FFFCFF
FEFEFF
FEFEFF
FEFFFF
FE7FFF
FE7FFF
FE3FFF
FE3FFF
FE1FFF
FE1FFF
FE0FFF
FE0FFF
FE07FF
FE07FF
FE03FF
FE03FF
FE01FF
FE01FF
FE00FF
ENDCHAR
STARTCHAR 00D2
ENCODING 210
SWIDTH 596 0
DWIDTH 29 0
BBX 27 43 1 0
BITMAP
07F80000
01F80000
00FC0000
007E0000
007F0000
003F0000
001F8000
00000000
00000000
003FC000
01FFF800
07FFFC00
0FFFFE00
1FFFFF00
3FFFFF80
3FF1FFC0
7FC07FC0
7F803FE0
FF801FE0
FF001FE0
FF001FE0
FF001FE0
FF001FE0
FF001FE0
FF001FE0
FF001FE0
FF001FE0
FF001FE0
FF001FE0
FF001FE0
FF001FE0
FF001FE0
FF001FE0
FF001FE0
FF803FE0
7F803FC0
7FC07FC0
3FFFFFC0
3FFFFF80
1FFFFF00
0FFFFE00
07FFFC00
01FFF000
ENDCHAR
STARTCHAR 00D3
ENCODING 211
SWIDTH 596 0
DWIDTH 29 0
BBX 27 43 1 0
BITMAP
0001FC00
0003F800
0007F000
0007E000
000FC000
001F8000
001F0000
00000000
00000000
003FC000
01FFF800
07FFFC00
0FFFFE00
1FFFFF00
3FFFFF80
3FF1FFC0
7FC07FC0
7F803FE0
FF801FE0
FF001FE0
FF001FE0
FF001FE0
FF001FE0
FF001FE0
FF001FE0
FF001FE0
FF001FE0
FF001FE0
FF001FE0
FF001FE0
FF001FE0
FF001FE0
FF001FE0
FF001FE0
FF803FE0
7F803FC0
7FC07FC0
3FFFFFC0
3FFFFF80
1FFFFF00
0FFFFE00
07FFFC00
01FFF000
ENDCHAR
STARTCHAR 00D4
ENCODING 212
SWIDTH 596 0
DWIDTH 29 0
BBX 27 43 1 0
BITMAP
003FC000
007FC000
00FBE000
01F9F000
03F1F800
07E0FC00
08000200
00000000
00000000
003FC000
01FFF800
07FFFC00
0FFFFE00
1FFFFF00
3FFFFF80
3FF1FFC0
7FC07FC0
7F803FE0
FF801FE0
FF001FE0
FF001FE0
FF001FE0
FF001FE0
FF001FE0
FF001FE0
FF001FE0
FF001FE0
FF001FE0
FF001FE0
FF001FE0
FF001FE0
FF001FE0
FF001FE0
FF001FE0
FF803FE0
7F803FC0
7FC07FC0
3FFFFFC0
3FFFFF80
1FFFFF00
0FFFFE00
07FFFC00
01FFF000
ENDCHAR
STARTCHAR 00D5
ENCODING 213
SWIDTH 596 0
DWIDTH 29 0
BBX 27 43 1 0
BITMAP
01F81E00
03FF1E00
07FFFE00
07FFFC00
0FBFFC00
0F07F800
0E004000
00000000
00000000
003FC000
01FFF800
07FFFC00
0FFFFE00
1FFFFF00
3FFFFF80
3FF1FFC0
7FC07FC0
7F803FE0
FF801FE0
FF001FE0
FF001FE0
FF001FE0
FF001FE0
FF001FE0
FF001FE0
FF001FE0
FF001FE0
FF001FE0
FF001FE0
FF001FE0
FF001FE0
FF001FE0
FF001FE0
FF001FE0
FF803FE0
7F803FC0
7FC07FC0
3FFFFFC0
3FFFFF80
1FFFFF00
0FFFFE00
07FFFC00
01FFF000
ENDCHAR
STARTCHAR 00D6
ENCODING 214
SWIDTH 596 0
DWIDTH 29 0
BBX 27 43 1 0
BITMAP
07E0FC00
07E0FC00
07E0FC00
07E0FC00
07E0FC00
07E0FC00
00000000
00000000
00000000
003FC000
01FFF800
07FFFC00
0FFFFE00
1FFFFF00
3FFFFF80
3FF1FFC0
7FC07FC0
7F803FE0
FF801FE0
FF001FE0
FF001FE0
FF001FE0
FF001FE0
FF001FE0
FF001FE0
FF001FE0
FF001FE0
FF001FE0
FF001FE0
FF001FE0
FF001FE0
FF001FE0
FF001FE0
FF001FE0
FF803FE0
7F803FC0
7FC07FC0
3FFFFFC0
3FFFFF80
1FFFFF00
0FFFFE00
07FFFC00
01FFF000
ENDCHAR
STARTCHAR 00D7
ENCODING 215
SWIDTH 596 0
DWIDTH 29 0
BBX 21 21 4 2
BITMAP
100040
3800E0
7C01F0
FE03F8
7F07F0
3F8FE0
1FDFC0
0FFF80
07FF00
03FE00
01FC00
03FE00
07FF00
0FFF80
1FDFC0
3F8FE0
7F07F0
FE03F8
7C01F0
3800E0
100040
ENDCHAR
STARTCHAR 00D8
ENCODING 216
SWIDTH 596 0
DWIDTH 29 0
BBX 29 40 0 -3
BITMAP
000000F8
000000F0
000001E0
001FE3E0
00FFFFC0
03FFFFC0
07FFFF80
0FFFFF80
1FFFFFC0
1FF8FFE0
3FE03FE0
3FC03FF0
7FC07FF0
7F80FFF0
7F80FFF0
7F81FFF0
7F81EFF0
7F83CFF0
7F87CFF0
7F878FF0
7F8F8FF0
7F8F0FF0
7F9E0FF0
7FBE0FF0
7FBC0FF0
7FFC0FF0
7FF80FF0
7FF00FF0
7FF01FF0
3FE01FE0
3FE03FE0
1FFFFFE0
1FFFFFC0
0FFFFF80
0FFFFF00
1FFFFE00
1EFFF800
3C000000
7C000000
F8000000
ENDCHAR
STARTCHAR 00D9
ENCODING 217
SWIDTH 596 0
DWIDTH 29 0
BBX 25 43 2 0
BITMAP
0FF00000
03F00000
01F80000
00FC0000
00FE0000
007E0000
003F0000
00000000
00000000
00000000
FF007F80
FF007F80
FF007F80
FF007F80
FF007F80
FF007F80
FF007F80
FF007F80
FF007F80
FF007F80
FF007F80
FF007F80
FF007F80
FF007F80
FF007F80
FF007F80
FF007F80
FF007F80
FF007F80
FF007F80
FF007F80
FF007F80
FF007F80
FF007F80
FF007F80
FF80FF80
7FC0FF00
7FFFFF00
3FFFFF00
3FFFFE00
1FFFFC00
0FFFF800
03FFE000
ENDCHAR
STARTCHAR 00DA
ENCODING 218
SWIDTH 596 0
DWIDTH 29 0
BBX 25 43 2 0
BITMAP
0003F800
0007F000
000FE000
000FC000
001F8000
003F0000
003E0000
00000000
00000000
00000000
FF007F80
FF007F80
FF007F80
FF007F80
FF007F80
FF007F80
FF007F80
FF007F80
FF007F80
FF007F80
FF007F80
FF007F80
FF007F80
FF007F80
FF007F80
FF007F80
FF007F80
FF007F80
FF007F80
FF007F80
FF007F80
FF007F80
FF007F80
FF007F80
FF007F80
FF80FF80
7FC0FF00
7FFFFF00
3FFFFF00
3FFFFE00
1FFFFC00
0FFFF800
03FFE000
ENDCHAR
STARTCHAR 00DB
ENCODING 219
SWIDTH 596 0
DWIDTH 29 0
BBX 25 43 2 0
BITMAP
007F8000
00FF8000
01F7C000
03F3E000
07E3F000
0FC1F800
10000400
00000000
00000000
00000000
FF007F80
FF007F80
FF007F80
FF007F80
FF007F80
FF007F80
FF007F80
FF007F80
FF007F80
FF007F80
FF007F80
FF007F80
FF007F80
FF007F80
FF007F80
FF007F80
FF007F80
FF007F80
FF007F80
FF007F80
FF007F80
FF007F80
FF007F80
FF007F80
FF007F80
FF80FF80
7FC0FF00
7FFFFF00
3FFFFF00
3FFFFE00
1FFFFC00
0FFFF800
03FFE000
ENDCHAR
STARTCHAR 00DC
ENCODING 220
SWIDTH 596 0
DWIDTH 29 0
BBX 25 43 2 0
BITMAP
0FC1F800
0FC1F800
0FC1F800
0FC1F800
0FC1F800
0FC1F800
00000000
00000000
00000000
00000000
FF007F80
FF007F80
FF007F80
FF007F80
FF007F80
FF007F80
FF007F80
FF007F80
FF007F80
FF007F80
FF007F80
FF007F80
FF007F80
FF007F80
FF007F80
FF007F80
FF007F80
FF007F80
FF007F80
FF007F80
FF007F80
FF007F80
FF007F80
FF007F80
FF007F80
FF80FF80
7FC0FF00
7FFFFF00
3FFFFF00
3FFFFE00
1FFFFC00
0FFFF800
03FFE000
ENDCHAR
STARTCHAR 00DD
ENCODING 221
SWIDTH 596 0
DWIDTH 29 0
BBX 29 43 0 0
BITMAP
0000FE00
0001FC00
0003F800
0003F000
0007E000
000FC000
000F8000
00000000
00000000
80000000
7F800FF8
7FC00FF0
3FC01FF0
3FE01FE0
1FE01FE0
1FF03FC0
0FF03FC0
0FF07F80
07F87F80
07F8FF00
03FCFF00
03FCFE00
03FFFE00
01FFFC00
01FFFC00
00FFF800
00FFF800
007FF000
007FF000
003FF000
003FE000
001FE000
001FE000
001FE000
001FE000
001FE000
001FE000
001FE000
001FE000
001FE000
001FE000
001FE000
001FE000
ENDCHAR
STARTCHAR 00DE
ENCODING 222
SWIDTH 596 0
DWIDTH 29 0
BBX 25 33 3 0
BITMAP
FF000000
FF000000
FF000000
FF000000
FF000000
FFFFC000
FFFFF000
FFFFFC00
FFFFFE00
FFFFFF00
FFFFFF00
FF01FF80
FF00FF80
FF007F80
FF007F80
FF007F80
FF007F80
FF007F80
FF00FF80
FF03FF80
FFFFFF00
FFFFFE00
FFFFFE00
FFFFF800
FFFFF000
FF000000
FF000000
FF000000
FF000000
FF000000
FF000000
FF000000
FF000000
ENDCHAR
STARTCHAR 00DF
ENCODING 223
SWIDTH 596 0
DWIDTH 29 0
BBX 28 38 0 -3
BITMAP
003FF800
00FFFE00
01FFFF00
03FFFF80
07FFFFC0
0FFEFFC0
0FF03FE0
0FF01FE0
0FE00FE0
0FE00FE0
FFE00FE0
FFE01FE0
FFE01FC0
FFE03F80
FFE7FF00
FFE7FE00
0FE7FE00
0FE7FF80
0FE7FFC0
0FE03FE0
0FE01FE0
0FE00FF0
0FE00FF0
0FE007F0
0FE007F0
0FE007F0
0FE00FF0
0FE00FF0
0FE03FF0
0FE7FFE0
0FE7FFE0
0FE7FFC0
0FE7FF80
0FE7FE00
0FE7F800
0FE00000
0FE00000
0FE00000
ENDCHAR
STARTCHAR 00E0
ENCODING 224
SWIDTH 596 0
DWIDTH 29 0
BBX 26 37 2 0
BITMAP
07F00000
03F00000
01F80000
01F80000
00FC0000
007C0000
007E0000
003E0000
001F0000
00000000
00000000
00000000
01FFC000
0FFFF000
1FFFF800
3FFFFC00
3FE7FE00
7F81FE00
7F00FE00
7F00FE00
0000FE00
0000FE00
00FFFE00
07FFFE00
1FFFFE00
3FFFFE00
7FC0FE00
7F80FE00
7F00FE00
FF01FE00
FF01FE00
FF83FE00
7FCFFF40
7FFFFFC0
7FFF7FC0
3FFE7FC0
0FF83FC0
ENDCHAR
STARTCHAR 00E1
ENCODING 225
SWIDTH 596 0
DWIDTH 29 0
BBX 26 37 2 0
BITMAP
000FE000
000FC000
001FC000
001F8000
003F0000
003F0000
007E0000
007C0000
00FC0000
00000000
00000000
00000000
01FFC000
0FFFF000
1FFFF800
3FFFFC00
3FE7FE00
7F81FE00
7F00FE00
7F00FE00
0000FE00
0000FE00
00FFFE00
07FFFE00
1FFFFE00
3FFFFE00
7FC0FE00
7F80FE00
7F00FE00
FF01FE00
FF01FE00
FF83FE00
7FCFFF40
7FFFFFC0
7FFF7FC0
3FFE7FC0
0FF83FC0
ENDCHAR
STARTCHAR 00E2
ENCODING 226
SWIDTH 596 0
DWIDTH 29 0
BBX 26 37 2 0
BITMAP
007E0000
00FF0000
01FF8000
01FFC000
03E7C000
07E3E000
0FC3F000
0F81F800
1F80FC00
00000000
00000000
00000000
01FFC000
0FFFF000
1FFFF800
3FFFFC00
3FE7FE00
7F81FE00
7F00FE00
7F00FE00
0000FE00
0000FE00
00FFFE00
07FFFE00
1FFFFE00
3FFFFE00
7FC0FE00
7F80FE00
7F00FE00
FF01FE00
FF01FE00
FF83FE00
7FCFFF40
7FFFFFC0
7FFF7FC0
3FFE7FC0
0FF83FC0
ENDCHAR
STARTCHAR 00E3
ENCODING 227
SWIDTH 596 0
DWIDTH 29 0
BBX 26 36 2 0
BITMAP
03E03C00
0FF83C00
0FFFFC00
1FFFF800
1FFFF800
1C1FF000
3C07E000
00000000
00000000
00000000
00000000
01FFC000
0FFFF000
1FFFF800
3FFFFC00
3FE7FE00
7F81FE00
7F00FE00
7F00FE00
0000FE00
0000FE00
00FFFE00
07FFFE00
1FFFFE00
3FFFFE00
7FC0FE00
7F80FE00
7F00FE00
FF01FE00
FF01FE00
FF83FE00
7FCFFF40
7FFFFFC0
7FFF7FC0
3FFE7FC0
0FF83FC0
ENDCHAR
STARTCHAR 00E4
ENCODING 228
SWIDTH 596 0
DWIDTH 29 0
BBX 26 35 2 0
BITMAP
1F81F800
1F81F800
1F81F800
1F81F800
1F81F800
1F81F800
00000000
00000000
00000000
00000000
01FFC000
0FFFF000
1FFFF800
3FFFFC00
3FE7FE00
7F81FE00
7F00FE00
7F00FE00
0000FE00
0000FE00
00FFFE00
07FFFE00
1FFFFE00
3FFFFE00
7FC0FE00
7F80FE00
7F00FE00
FF01FE00
FF01FE00
FF83FE00
7FCFFF40
7FFFFFC0
7FFF7FC0
3FFE7FC0
0FF83FC0
ENDCHAR
STARTCHAR 00E5
ENCODING 229
SWIDTH 596 0
DWIDTH 29 0
BBX 26 38 2 0
BITMAP
007E0000
00FF0000
01FF8000
01E38000
01C38000
01C38000
01E78000
00FF8000
007F0000
00180000
00000000
00000000
00000000
01FFC000
0FFFF000
1FFFF800
3FFFFC00
3FE7FE00
7F81FE00
7F00FE00
7F00FE00
0000FE00
0000FE00
00FFFE00
07FFFE00
1FFFFE00
3FFFFE00
7FC0FE00
7F80FE00
7F00FE00
FF01FE00
FF01FE00
FF83FE00
7FCFFF40
7FFFFFC0
7FFF7FC0
3FFE7FC0
0FF83FC0
ENDCHAR
STARTCHAR 00E6
ENCODING 230
SWIDTH 596 0
DWIDTH 29 0
BBX 29 25 0 0
BITMAP
07F03F80
1FFCFFC0
1FFEFFE0
3FFFFFE0
3F7FF7F0
7E1FE1F0
7C1FC1F0
7C1FC1F8
001FC1F8
001FC1F8
03FFFFF8
0FFFFFF8
1FFFFFF8
3FFFFFF8
7F1FC000
7E1FC000
7C1FC0F8
FC1FC0F8
FC1FC1F8
FC3FE1F0
7F7FFFF0
7FFFFFF0
7FFDFFE0
3FF8FFC0
1FE07F80
ENDCHAR
STARTCHAR 00E7
ENCODING 231
SWIDTH 596 0
DWIDTH 29 0
BBX 24 35 2 -10
BITMAP
01FFC0
07FFF0
0FFFF8
1FFFFC
3FFFFC
3FC0FE
7F807E
7F807F
FF007F
FF007F
FF0000
FF0000
FF0000
FF0000
FF0000
FF007F
FF007F
7F007F
7F807E
3FC0FE
3FF3FE
1FFFFC
0FFFF8
07FFF0
01FFC0
000000
001C00
001F80
001FC0
0003C0
0003C0
0083C0
00FFC0
01FF80
00FF00
ENDCHAR
STARTCHAR 00E8
ENCODING 232
SWIDTH 596 0
DWIDTH 29 0
BBX 25 37 2 0
BITMAP
03F80000
01F80000
01FC0000
00FC0000
007E0000
007E0000
003F0000
001F0000
001F8000
00000000
00000000
00000000
00FFC000
07FFF000
0FFFFC00
1FFFFC00
3FFFFE00
3FC0FF00
7F807F00
7F807F00
FF007F80
FF007F80
FFFFFF80
FFFFFF80
FFFFFF80
FFFFFF80
FF000000
FF000000
FF003F80
7F803F80
7F807F80
7FC07F00
3FF3FF00
1FFFFE00
1FFFFC00
07FFF800
01FFE000
ENDCHAR
STARTCHAR 00E9
ENCODING 233
SWIDTH 596 0
DWIDTH 29 0
BBX 25 37 2 0
BITMAP
0007F000
0007E000
000FC000
000FC000
001F8000
001F0000
003F0000
003E0000
007C0000
00000000
00000000
00000000
00FFC000
07FFF000
0FFFFC00
1FFFFC00
3FFFFE00
3FC0FF00
7F807F00
7F807F00
FF007F80
FF007F80
FFFFFF80
FFFFFF80
FFFFFF80
FFFFFF80
FF000000
FF000000
FF003F80
7F803F80
7F807F80
7FC07F00
3FF3FF00
1FFFFE00
1FFFFC00
07FFF800
01FFE000
ENDCHAR
STARTCHAR 00EA
ENCODING 234
SWIDTH 596 0
DWIDTH 29 0
BBX 25 37 2 0
BITMAP
003F0000
007F8000
00FFC000
01FFE000
01F3E000
03F3F000
07E1F800
0FC0F800
0F807C00
00000000
00000000
00000000
00FFC000
07FFF000
0FFFFC00
1FFFFC00
3FFFFE00
3FC0FF00
7F807F00
7F807F00
FF007F80
FF007F80
FFFFFF80
FFFFFF80
FFFFFF80
FFFFFF80
FF000000
FF000000
FF003F80
7F803F80
7F807F80
7FC07F00
3FF3FF00
1FFFFE00
1FFFFC00
07FFF800
01FFE000
ENDCHAR
STARTCHAR 00EB
ENCODING 235
SWIDTH 596 0
DWIDTH 29 0
BBX 25 35 2 0
BITMAP
0FC0FC00
0FC0FC00
0FC0FC00
0FC0FC00
0FC0FC00
0FC0FC00
00000000
00000000
00000000
00000000
00FFC000
07FFF000
0FFFFC00
1FFFFC00
3FFFFE00
3FC0FF00
7F807F00
7F807F00
FF007F80
FF007F80
FFFFFF80
FFFFFF80
FFFFFF80
FFFFFF80
FF000000
FF000000
FF003F80
7F803F80
7F807F80
7FC07F00
3FF3FF00
1FFFFE00
1FFFFC00
07FFF800
01FFE000
ENDCHAR
STARTCHAR 00EC
ENCODING 236
SWIDTH 596 0
DWIDTH 29 0
BBX 23 37 4 0
BITMAP
07E000
07F000
03F000
01F800
01F800
00FC00
007C00
003E00
003E00
000000
000000
000000
FFFF00
FFFF00
FFFF00
FFFF00
FFFF00
FFFF00
00FF00
00FF00
00FF00
00FF00
00FF00
00FF00
00FF00
00FF00
00FF00
00FF00
00FF00
00FF00
00FF00
FFFFFE
FFFFFE
FFFFFE
FFFFFE
FFFFFE
FFFFFE
ENDCHAR
STARTCHAR 00ED
ENCODING 237
SWIDTH 596 0
DWIDTH 29 0
BBX 23 37 4 0
BITMAP
000FE0
001FC0
001F80
003F80
003F00
007E00
007E00
00FC00
00F800
000000
000000
000000
FFFF00
FFFF00
FFFF00
FFFF00
FFFF00
FFFF00
00FF00
00FF00
00FF00
00FF00
00FF00
00FF00
00FF00
00FF00
00FF00
00FF00
00FF00
00FF00
00FF00
FFFFFE
FFFFFE
FFFFFE
FFFFFE
FFFFFE
FFFFFE
ENDCHAR
STARTCHAR 00EE
ENCODING 238
SWIDTH 596 0
DWIDTH 29 0
BBX 23 37 4 0
BITMAP
00FE00
00FF00
01FF80
03FF80
07EFC0
07C7E0
0FC3F0
1F81F0
3F01F8
000000
000000
000000
FFFF00
FFFF00
FFFF00
FFFF00
FFFF00
FFFF00
00FF00
00FF00
00FF00
00FF00
00FF00
00FF00
00FF00
00FF00
00FF00
00FF00
00FF00
00FF00
00FF00
FFFFFE
FFFFFE
FFFFFE
FFFFFE
FFFFFE
FFFFFE
ENDCHAR
STARTCHAR 00EF
ENCODING 239
SWIDTH 596 0
DWIDTH 29 0
BBX 23 35 4 0
BITMAP
1F81F8
1F81F8
1F81F8
1F81F8
1F81F8
1F81F8
000000
000000
000000
000000
FFFF00
FFFF00
FFFF00
FFFF00
FFFF00
FFFF00
00FF00
00FF00
00FF00
00FF00
00FF00
00FF00
00FF00
00FF00
00FF00
00FF00
00FF00
00FF00
00FF00
FFFFFE
FFFFFE
FFFFFE
FFFFFE
FFFFFE
FFFFFE
ENDCHAR
STARTCHAR 00F0
ENCODING 240
SWIDTH 596 0
DWIDTH 29 0
BBX 25 36 2 0
BITMAP
01000000
07C18000
1FFFC000
07FF8000
03FE0000
03FF0000
0FFF8000
1FBFC000
061FE000
000FF000
0007F800
01FFF800
07FFFC00
1FFFFE00
1FFFFE00
3FFFFF00
7FC1FF00
7F80FF00
FF007F80
FF007F80
FF007F80
FF007F80
FF007F80
FF007F80
FF007F80
FF007F80
FF007F80
FF007F80
FF007F80
7F80FF00
7FC0FF00
3FF3FE00
1FFFFC00
0FFFF800
07FFF000
01FFC000
ENDCHAR
STARTCHAR 00F1
ENCODING 241
SWIDTH 596 0
DWIDTH 29 0
BBX 23 36 3 0
BITMAP
07E03C
0FF838
1FFEF8
1FFFF8
3FFFF0
3C3FF0
380FC0
000000
000000
000000
000000
FE3FE0
FEFFF0
FFFFF8
FFFFFC
FFFFFC
FFC7FE
FF81FE
FF01FE
FF01FE
FF01FE
FF01FE
FF01FE
FF01FE
FF01FE
FF01FE
FF01FE
FF01FE
FF01FE
FF01FE
FF01FE
FF01FE
FF01FE
FF01FE
FF01FE
FF01FE
ENDCHAR
STARTCHAR 00F2
ENCODING 242
SWIDTH 596 0
DWIDTH 29 0
BBX 25 37 2 0
BITMAP
07F00000
03F80000
01F80000
00FC0000
00FC0000
007E0000
003E0000
003F0000
001F0000
00000000
00000000
00000000
01FFC000
07FFF000
0FFFF800
1FFFFC00
3FFFFE00
3FC1FF00
7F80FF00
7F007F80
FF007F80
FF007F80
FF007F80
FF007F80
FF007F80
FF007F80
FF007F80
FF007F80
FF007F80
7F007F80
7F80FF00
7FC1FF00
3FF7FE00
1FFFFC00
0FFFF800
07FFF000
01FFC000
ENDCHAR
STARTCHAR 00F3
ENCODING 243
SWIDTH 596 0
DWIDTH 29 0
BBX 25 37 2 0
BITMAP
0007F000
000FE000
000FC000
001F8000
001F8000
003F0000
003E0000
007E0000
007C0000
00000000
00000000
00000000
01FFC000
07FFF000
0FFFF800
1FFFFC00
3FFFFE00
3FC1FF00
7F80FF00
7F007F80
FF007F80
FF007F80
FF007F80
FF007F80
FF007F80
FF007F80
FF007F80
FF007F80
FF007F80
7F007F80
7F80FF00
7FC1FF00
3FF7FE00
1FFFFC00
0FFFF800
07FFF000
01FFC000
ENDCHAR
STARTCHAR 00F4
ENCODING 244
SWIDTH 596 0
DWIDTH 29 0
BBX 25 37 2 0
BITMAP
007F0000
00FF8000
00FF8000
01FFC000
03F7E000
03E3F000
07C1F000
0FC1F800
1F80FC00
00000000
00000000
00000000
01FFC000
07FFF000
0FFFF800
1FFFFC00
3FFFFE00
3FC1FF00
7F80FF00
7F007F80
FF007F80
FF007F80
FF007F80
FF007F80
FF007F80
FF007F80
FF007F80
FF007F80
FF007F80
7F007F80
7F80FF00
7FC1FF00
3FF7FE00
1FFFFC00
0FFFF800
07FFF000
01FFC000
ENDCHAR
STARTCHAR 00F5
ENCODING 245
SWIDTH 596 0
DWIDTH 29 0
BBX 25 36 2 0
BITMAP
03F01C00
07FC3C00
0FFF7C00
0FFFFC00
1F7FF800
1E1FF000
1C07E000
00000000
00000000
00000000
00000000
01FFC000
07FFF000
0FFFF800
1FFFFC00
3FFFFE00
3FC1FF00
7F80FF00
7F007F80
FF007F80
FF007F80
FF007F80
FF007F80
FF007F80
FF007F80
FF007F80
FF007F80
FF007F80
7F007F80
7F80FF00
7FC1FF00
3FF7FE00
1FFFFC00
0FFFF800
07FFF000
01FFC000
ENDCHAR
STARTCHAR 00F6
ENCODING 246
SWIDTH 596 0
DWIDTH 29 0
BBX 25 35 2 0
BITMAP
0FC1F800
0FC1F800
0FC1F800
0FC1F800
0FC1F800
0FC1F800
00000000
00000000
00000000
00000000
01FFC000
07FFF000
0FFFF800
1FFFFC00
3FFFFE00
3FC1FF00
7F80FF00
7F007F80
FF007F80
FF007F80
FF007F80
FF007F80
FF007F80
FF007F80
FF007F80
FF007F80
FF007F80
7F007F80
7F80FF00
7FC1FF00
3FF7FE00
1FFFFC00
0FFFF800
07FFF000
01FFC000
ENDCHAR
STARTCHAR 00F7
ENCODING 247
SWIDTH 596 0
DWIDTH 29 0
BBX 25 21 2 2
BITMAP
003E0000
003E0000
003E0000
003E0000
003E0000
00000000
00000000
00000000
FFFFFF80
FFFFFF80
FFFFFF80
FFFFFF80
FFFFFF80
00000000
00000000
00000000
003E0000
003E0000
003E0000
003E0000
003E0000
ENDCHAR
STARTCHAR 00F8
ENCODING 248
SWIDTH 596 0
DWIDTH 29 0
BBX 25 30 2 -2
BITMAP
00000F00
00001E00
00001E00
01FFFC00
07FFF800
0FFFF800
1FFFFC00
3FFFFE00
3FC1FF00
7F83FF00
7F03FF80
FF07FF80
FF0F7F80
FF0F7F80
FF1E7F80
FF1C7F80
FF3C7F80
FF787F80
FF787F80
FFF07F80
7FE07F80
7FE0FF00
7FC1FF00
3FF7FE00
1FFFFC00
0FFFF800
0FFFF000
1FFFC000
3C000000
7C000000
ENDCHAR
STARTCHAR 00F9
ENCODING 249
SWIDTH 596 0
DWIDTH 29 0
BBX 25 37 3 0
BITMAP
0FE00000
07E00000
03F00000
03F00000
01F80000
00F80000
00FC0000
007C0000
003E0000
00000000
00000000
00000000
FF01FE00
FF01FE00
FF01FE00
FF01FE00
FF01FE00
FF01FE00
FF01FE00
FF01FE00
FF01FE00
FF01FE00
FF01FE00
FF01FE00
FF01FE00
FF01FE00
FF01FE00
FF01FE00
FF01FE00
FF01FE00
FF03FE00
FF87FE00
FFFFFF80
7FFFFF80
7FFFFF80
3FFEFF80
0FF87F80
ENDCHAR
STARTCHAR 00FA
ENCODING 250
SWIDTH 596 0
DWIDTH 29 0
BBX 25 37 3 0
BITMAP
001FC000
001F8000
003F8000
003F0000
007E0000
007E0000
007C0000
00F80000
00F80000
00000000
00000000
00000000
FF01FE00
FF01FE00
FF01FE00
FF01FE00
FF01FE00
FF01FE00
FF01FE00
FF01FE00
FF01FE00
FF01FE00
FF01FE00
FF01FE00
FF01FE00
FF01FE00
FF01FE00
FF01FE00
FF01FE00
FF01FE00
FF03FE00
FF87FE00
FFFFFF80
7FFFFF80
7FFFFF80
3FFEFF80
0FF87F80
ENDCHAR
STARTCHAR 00FB
ENCODING 251
SWIDTH 596 0
DWIDTH 29 0
BBX 25 37 3 0
BITMAP
00FE0000
01FE0000
03FF0000
03FF8000
07EFC000
0FC7C000
0F87E000
1F03F000
3F01F800
00000000
00000000
00000000
FF01FE00
FF01FE00
FF01FE00
FF01FE00
FF01FE00
FF01FE00
FF01FE00
FF01FE00
FF01FE00
FF01FE00
FF01FE00
FF01FE00
FF01FE00
FF01FE00
FF01FE00
FF01FE00
FF01FE00
FF01FE00
FF03FE00
FF87FE00
FFFFFF80
7FFFFF80
7FFFFF80
3FFEFF80
0FF87F80
ENDCHAR
STARTCHAR 00FC
ENCODING 252
SWIDTH 596 0
DWIDTH 29 0
BBX 25 35 3 0
BITMAP
3F03F000
3F03F000
3F03F000
3F03F000
3F03F000
3F03F000
00000000
00000000
00000000
00000000
FF01FE00
FF01FE00
FF01FE00
FF01FE00
FF01FE00
FF01FE00
FF01FE00
FF01FE00
FF01FE00
FF01FE00
FF01FE00
FF01FE00
FF01FE00
FF01FE00
FF01FE00
FF01FE00
FF01FE00
FF01FE00
FF03FE00
FF87FE00
FFFFFF80
7FFFFF80
7FFFFF80
3FFEFF80
0FF87F80
ENDCHAR
STARTCHAR 00FD
ENCODING 253
SWIDTH 596 0
DWIDTH 29 0
BBX 26 46 2 -9
BITMAP
0007F000
0007E000
000FE000
000FC000
001F8000
001F8000
003F0000
003E0000
007E0000
00000000
00000000
00000000
FF003FC0
FF003F80
7F807F80
7F807F00
7F807F00
3FC0FF00
3FC0FE00
3FC0FE00
1FE1FC00
1FE1FC00
0FE1FC00
0FF3F800
0FF3F800
07F3F800
07FBF000
03FFF000
03FFE000
03FFE000
01FFE000
01FFC000
00FFC000
00FFC000
00FF8000
007F8000
007F0000
007F0000
00FE0000
00FE0000
43FC0000
7FFC0000
7FF80000
7FF00000
7FE00000
3F800000
ENDCHAR
STARTCHAR 00FE
ENCODING 254
SWIDTH 596 0
DWIDTH 29 0
BBX 24 44 3 -9
BITMAP
FF0000
FF0000
FF0000
FF0000
FF0000
FF0000
FF0000
FF0000
FF0000
FF0000
FF3FC0
FF7FF0
FFFFF8
FFFFFC
FFFFFE
FFC1FE
FF80FE
FF00FF
FF007F
FF007F
FF007F
FF007F
FF007F
FF007F
FF007F
FF007F
FF007F
FF00FF
FF80FF
FFC1FE
FFFFFE
FFFFFC
FFFFF8
FF7FF0
FF3FE0
FF0000
FF0000
FF0000
FF0000
FF0000
FF0000
FF0000
FF0000
FF0000
ENDCHAR
STARTCHAR 00FF
ENCODING 255
SWIDTH 596 0
DWIDTH 29 0
BBX 26 44 2 -9
BITMAP
0FC0FC00
0FC0FC00
0FC0FC00
0FC0FC00
0FC0FC00
0FC0FC00
00000000
00000000
00000000
00000000
FF003FC0
FF003F80
7F807F80
7F807F00
7F807F00
3FC0FF00
3FC0FE00
3FC0FE00
1FE1FC00
1FE1FC00
0FE1FC00
0FF3F800
0FF3F800
07F3F800
07FBF000
03FFF000
03FFE000
03FFE000
01FFE000
01FFC000
00FFC000
00FFC000
00FF8000
007F8000
007F0000
007F0000
00FE0000
00FE0000
43FC0000
7FFC0000
7FF80000
7FF00000
7FE00000
3F800000
ENDCHAR
STARTCHAR 0152
ENCODING 140
SWIDTH 596 0
DWIDTH 29 0
BBX 28 33 1 0
BITMAP
01FFFFE0
07FFFFE0
1FFFFFE0
3FFFFFE0
3FFFFFE0
7FFFFFC0
7F83F000
FF03F000
FE03F000
FE03F000
FE03F000
FE03F000
FE03F000
FE03FFC0
FE03FFC0
FE03FFC0
FE03FFC0
FE03FFC0
FE03FFC0
FE03F000
FE03F000
FE03F000
FE03F000
FE03F000
FE03F000
7F03F000
7FC3F000
7FFFFFE0
3FFFFFE0
1FFFFFF0
0FFFFFF0
07FFFFF0
00FFFFF0
ENDCHAR
STARTCHAR 0153
ENCODING 156
SWIDTH 596 0
DWIDTH 29 0
BBX 29 25 0 0
BITMAP
07F07F00
1FF8FFC0
3FFDFFE0
3FFFFFE0
7F7FF7F0
7E1FE1F0
7C1FC1F0
7C1FC1F8
FC1FC1F8
FC1FC1F8
FC1FFFF8
FC1FFFF8
FC1FFFF8
FC1FFFF8
FC1FC000
FC1FC000
FC1FC0F8
7C1FC0F8
7C1FC1F8
7E1FE1F0
7F7FFFF0
3FFFFFF0
3FFDFFE0
1FF8FFC0
0FF07F80
ENDCHAR
STARTCHAR 0160
ENCODING 138
SWIDTH 596 0
DWIDTH 29 0
BBX 27 43 1 0
BITMAP
07E07E00
03E0F800
01F1F800
00FBF000
00FFE000
007FC000
00000000
00000000
00000000
003FC000
01FFF800
07FFFE00
1FFFFF00
1FFFFF80
3FFFFFC0
7FE0FFC0
7F803FC0
7F801FC0
7F801FE0
7F801FE0
7FC00000
7FF00000
7FFF0000
3FFFF000
3FFFFC00
1FFFFF00
0FFFFF80
03FFFFC0
007FFFC0
000FFFE0
0000FFE0
00003FE0
FF001FE0
FE001FE0
FF001FE0
FF003FE0
FFC07FE0
7FFFFFC0
7FFFFFC0
3FFFFF80
1FFFFF00
07FFFE00
01FFF000
ENDCHAR
STARTCHAR 0161
ENCODING 154
SWIDTH 596 0
DWIDTH 29 0
BBX 23 37 3 0
BITMAP
3F01F8
1F83F0
0FC3E0
07C7C0
07EFC0
03FF80
01FF00
00FE00
00FE00
000000
000000
000000
03FF80
0FFFE0
3FFFF8
7FFFFC
7FEFFC
FE01FC
FE00FC
FE0000
FF8000
FFFC00
7FFFC0
7FFFF8
3FFFFC
0FFFFE
03FFFE
000FFE
0001FE
FC00FE
FC00FE
FE00FE
FFC7FE
7FFFFC
3FFFF8
1FFFF0
07FFC0
ENDCHAR
STARTCHAR 0178
ENCODING 159
SWIDTH 596 0
DWIDTH 29 0
BBX 29 43 0 0
BITMAP
03F07E00
03F07E00
03F07E00
03F07E00
03F07E00
03F07E00
00000000
00000000
00000000
80000000
7F800FF8
7FC00FF0
3FC01FF0
3FE01FE0
1FE01FE0
1FF03FC0
0FF03FC0
0FF07F80
07F87F80
07F8FF00
03FCFF00
03FCFE00
03FFFE00
01FFFC00
01FFFC00
00FFF800
00FFF800
007FF000
007FF000
003FF000
003FE000
001FE000
001FE000
001FE000
001FE000
001FE000
001FE000
001FE000
001FE000
001FE000
001FE000
001FE000
001FE000
ENDCHAR
STARTCHAR 017D
ENCODING 142
SWIDTH 596 0
DWIDTH 29 0
BBX 27 43 1 0
BITMAP
07E07E00
03E0F800
01F1F800
00FBF000
00FFE000
007FC000
00000000
00000000
00000000
00000000
7FFFFFE0
7FFFFFE0
7FFFFFC0
7FFFFFC0
7FFFFF80
7FFFFF80
0001FF00
0003FE00
0003FE00
0007FC00
000FFC00
000FF800
001FF000
001FF000
003FE000
007FE000
007FC000
00FF8000
01FF8000
01FF0000
03FF0000
03FE0000
07FC0000
0FFC0000
0FF80000
1FF80000
1FF00000
3FFFFFE0
7FFFFFE0
7FFFFFE0
FFFFFFE0
FFFFFFE0
FFFFFFE0
ENDCHAR
STARTCHAR 017E
ENCODING 158
SWIDTH 596 0
DWIDTH 29 0
BBX 21 37 4 0
BITMAP
7E03F0
3F07E0
1F87C0
0F8F80
0FDF80
07FF00
03FE00
01FC00
01FC00
000000
000000
000000
7FFFF8
7FFFF8
7FFFF8
7FFFF0
7FFFE0
003FE0
003FC0
007FC0
007F80
00FF00
01FF00
01FE00
03FE00
03FC00
07F800
0FF800
0FF000
1FF000
1FE000
3FC000
7FFFF8
7FFFF8
FFFFF8
FFFFF8
FFFFF8
ENDCHAR
STARTCHAR 0192
ENCODING 131
SWIDTH 596 0
DWIDTH 29 0
BBX 25 44 1 -9
BITMAP
0001FF80
0003FF80
0007FF80
000FFF80
000FFF80
001FE000
001FE000
001FE000
001FE000
001FC000
00FFFF00
00FFFF00
01FFFF00
01FFFF00
01FFFF00
01FFFF00
003FC000
003F8000
003F8000
007F8000
007F8000
007F8000
007F8000
007F8000
007F0000
007F0000
00FF0000
00FF0000
00FF0000
00FF0000
00FF0000
00FE0000
00FE0000
01FE0000
01FE0000
01FE0000
01FE0000
01FE0000
43FC0000
7FFC0000
7FF80000
7FF80000
FFE00000
3F800000
ENDCHAR
STARTCHAR 02C6
ENCODING 136
SWIDTH 596 0
DWIDTH 29 0
BBX 19 9 5 28
BITMAP
03F800
07FC00
07FC00
0FFE00
1FBF00
1F1F80
3E0F80
7E0FC0
FC07E0
ENDCHAR
STARTCHAR 02DC
ENCODING 152
SWIDTH 596 0
DWIDTH 29 0
BBX 19 7 5 29
BITMAP
1F80E0
3FE1E0
7FFBE0
7FFFE0
FBFFC0
F0FF80
E03F00
ENDCHAR
STARTCHAR 2013
ENCODING 150
SWIDTH 596 0
DWIDTH 29 0
BBX 19 6 5 10
BITMAP
FFFFE0
FFFFE0
FFFFE0
FFFFE0
FFFFE0
FFFFE0
ENDCHAR
STARTCHAR 2014
ENCODING 151
SWIDTH 596 0
DWIDTH 29 0
BBX 29 6 0 10
BITMAP
FFFFFFF8
FFFFFFF8
FFFFFFF8
FFFFFFF8
FFFFFFF8
FFFFFFF8
ENDCHAR
STARTCHAR 2018
ENCODING 145
SWIDTH 596 0
DWIDTH 29 0
BBX 8 17 11 17
BITMAP
1E
3E
3C
78
78
F0
F0
F0
F0
FF
FF
FF
FF
FF
FF
FF
FF
ENDCHAR
STARTCHAR 2019
ENCODING 146
SWIDTH 596 0
DWIDTH 29 0
BBX 8 18 11 17
BITMAP
FF
FF
FF
FF
FF
FF
FF
FF
FF
1E
1E
1E
1E
3C
3C
78
F8
F0
ENDCHAR
STARTCHAR 201A
ENCODING 130
SWIDTH 596 0
DWIDTH 29 0
BBX 8 18 11 -9
BITMAP
FF
FF
FF
FF
FF
FF
FF
FF
FF
1E
1E
1E
1E
3C
3C
78
F8
F0
ENDCHAR
STARTCHAR 201C
ENCODING 147
SWIDTH 596 0
DWIDTH 29 0
BBX 19 17 5 17
BITMAP
1F03E0
1E03C0
3C07C0
7C0780
780F80
780F00
F80F00
F01F00
F01F00
FF1FE0
FF1FE0
FF1FE0
FF1FE0
FF1FE0
FF1FE0
FF1FE0
FF1FE0
ENDCHAR
STARTCHAR 201D
ENCODING 148
SWIDTH 596 0
DWIDTH 29 0
BBX 19 18 5 17
BITMAP
FF1FE0
FF1FE0
FF1FE0
FF1FE0
FF1FE0
FF1FE0
FF1FE0
FF1FE0
FF1FE0
0F01E0
0F01E0
1F01E0
1E03C0
1E03C0
3C07C0
7C0780
F80F00
F01F00
ENDCHAR
STARTCHAR 201E
ENCODING 132
SWIDTH 596 0
DWIDTH 29 0
BBX 19 18 5 -9
BITMAP
FF1FE0
FF1FE0
FF1FE0
FF1FE0
FF1FE0
FF1FE0
FF1FE0
FF1FE0
FF1FE0
0F01E0
0F01E0
1F01E0
1E03C0
1E03C0
3C07C0
7C0780
F80F00
F01F00
ENDCHAR
STARTCHAR 2020
ENCODING 134
SWIDTH 596 0
DWIDTH 29 0
BBX 24 41 3 -8
BITMAP
007E00
007C00
007C00
007C00
007C00
007C00
007C00
007C00
E03C07
FFFFFF
FFFFFF
FFFFFF
FFFFFF
FC3C3F
003C00
007C00
007C00
007C00
007C00
007C00
007C00
007C00
007C00
007C00
007C00
007C00
007C00
007C00
007C00
007C00
007C00
007C00
007C00
007C00
007C00
007C00
007C00
007C00
007C00
007E00
007E00
ENDCHAR
STARTCHAR 2021
ENCODING 135
SWIDTH 596 0
DWIDTH 29 0
BBX 24 42 3 -9
BITMAP
007E00
007C00
007C00
007C00
007C00
007C00
007C00
007C00
E03C07
FFFFFF
FFFFFF
FFFFFF
FFFFFF
FC3C3F
007C00
007C00
007C00
007C00
007C00
007C00
007E00
007C00
007C00
007C00
007C00
007C00
007C00
F03C1F
FFFFFF
FFFFFF
FFFFFF
FFFFFF
F03C1F
007C00
007C00
007C00
007C00
007C00
007C00
007C00
007C00
007E00
ENDCHAR
STARTCHAR 2022
ENCODING 149
SWIDTH 596 0
DWIDTH 29 0
BBX 16 16 7 9
BITMAP
0100
0FF0
3FF8
7FFC
7FFE
FFFE
FFFE
FFFE
FFFF
FFFE
FFFE
FFFE
7FFC
3FFC
1FF8
0FE0
ENDCHAR
STARTCHAR 2026
ENCODING 133
SWIDTH 596 0
DWIDTH 29 0
BBX 25 8 2 0
BITMAP
FC7F1F80
FC7F1F80
FC7F1F80
FC7F1F80
FC7F1F80
FC7F1F80
FC7F1F80
FC7F1F80
ENDCHAR
STARTCHAR 2030
ENCODING 137
SWIDTH 596 0
DWIDTH 29 0
BBX 27 33 1 0
BITMAP
1FC00000
3FF00000
7FF00000
78780000
78780000
78780000
78780000
78780000
78780000
78780000
78F80000
7FF00000
3FE00000
0FC00000
00000000
FFFFFFE0
FFFFFFE0
FFFFFFE0
03000800
1FE0FF00
3FF1FF80
7FF1FFC0
787BE3C0
787BC3E0
787BC1E0
787BC1E0
787BC1E0
787BC1E0
787BC3C0
7CFBE3C0
3FF1FFC0
3FE0FF80
0FC07E00
ENDCHAR
STARTCHAR 2039
ENCODING 139
SWIDTH 596 0
DWIDTH 29 0
BBX 11 17 9 8
BITMAP
03E0
07C0
0FC0
1F80
1F80
3F00
7F00
7E00
FE00
7E00
7F00
3F00
1F80
1F80
0FC0
07C0
07E0
ENDCHAR
STARTCHAR 203A
ENCODING 155
SWIDTH 596 0
DWIDTH 29 0
BBX 11 17 9 8
BITMAP
FC00
7C00
7E00
3F00
3F00
1F80
1FC0
0FC0
0FE0
0FE0
1FC0
1F80
3F80
3F00
7E00
7C00
FC00
ENDCHAR
STARTCHAR 20AC
ENCODING 128
SWIDTH 596 0
DWIDTH 29 0
BBX 25 34 1 0
BITMAP
00007E00
0003FF80
000FFF80
003FFF80
007FFF80
00FFFF80
01FFFF80
01FF8000
03FF0000
03FE0000
07FC0000
07F80000
FFFFF800
FFFFF800
FFFFF800
FFFFF800
0FF00000
0FF00000
0FF00000
FFFFF800
FFFFF800
FFFFF800
FFFFF800
07F80000
07FC0000
03FE0000
03FF0000
01FFC080
01FFFF80
00FFFF80
007FFF80
003FFF80
000FFF80
0003FF80
ENDCHAR
STARTCHAR 2122
ENCODING 153
SWIDTH 596 0
DWIDTH 29 0
BBX 29 19 0 14
BITMAP
FFEFC3F8
FFEFC3F8
FFEFC3F8
FFEFC3F8
1E0FE3F8
1E0FE3F8
1E0EE778
1E0EE778
1E0EE778
1E0EE778
1E0EE778
1E0EF778
1E0EF778
1E0E7E78
1E0E7E78
1E0E7E78
1E0E7E78
1E0E7E78
1E0E7E78
ENDCHAR
ENDFONT
